<svg width="142" height="45" viewBox="0 0 142 45" fill="none" xmlns="http://www.w3.org/2000/svg">
<path d="M7.105 29.15H10.92C11.6667 29.15 12.1917 28.9983 12.495 28.695C12.8217 28.3683 12.985 27.8317 12.985 27.085V16.41C12.985 15.6633 12.8217 15.1383 12.495 14.835C12.1917 14.5083 11.6667 14.345 10.92 14.345H7.105C6.84833 14.345 6.72 14.4733 6.72 14.73V28.765C6.72 29.0217 6.84833 29.15 7.105 29.15ZM2.275 32.265V11.23C2.275 10.74 2.52 10.495 3.01 10.495H11.655C13.475 10.495 14.8867 10.9967 15.89 12C16.9167 12.98 17.43 14.38 17.43 16.2V27.295C17.43 29.115 16.9167 30.5267 15.89 31.53C14.8867 32.51 13.475 33 11.655 33H3.01C2.52 33 2.275 32.755 2.275 32.265ZM26.4507 29.15H30.2657C31.0124 29.15 31.5374 28.9983 31.8407 28.695C32.1674 28.3683 32.3307 27.8317 32.3307 27.085V16.41C32.3307 15.6633 32.1674 15.1383 31.8407 14.835C31.5374 14.5083 31.0124 14.345 30.2657 14.345H26.4507C26.194 14.345 26.0657 14.4733 26.0657 14.73V28.765C26.0657 29.0217 26.194 29.15 26.4507 29.15ZM21.6207 32.265V11.23C21.6207 10.74 21.8657 10.495 22.3557 10.495H31.0007C32.8207 10.495 34.2324 10.9967 35.2357 12C36.2624 12.98 36.7757 14.38 36.7757 16.2V27.295C36.7757 29.115 36.2624 30.5267 35.2357 31.53C34.2324 32.51 32.8207 33 31.0007 33H22.3557C21.8657 33 21.6207 32.755 21.6207 32.265ZM44.6764 33H41.7014C41.2114 33 40.9664 32.755 40.9664 32.265V11.23C40.9664 10.74 41.2114 10.495 41.7014 10.495H50.2414C52.0614 10.495 53.4731 10.9967 54.4764 12C55.4797 12.98 55.9814 14.38 55.9814 16.2V19.56C55.9814 21.38 55.4797 22.7917 54.4764 23.795C53.4731 24.775 52.0614 25.265 50.2414 25.265H45.8314C45.5514 25.265 45.4114 25.3933 45.4114 25.65V32.265C45.4114 32.755 45.1664 33 44.6764 33ZM45.7964 21.38H49.5064C50.2531 21.38 50.7781 21.2283 51.0814 20.925C51.3847 20.5983 51.5364 20.0733 51.5364 19.35V16.41C51.5364 15.6633 51.3847 15.1383 51.0814 14.835C50.7781 14.5083 50.2531 14.345 49.5064 14.345H45.7964C45.5397 14.345 45.4114 14.4733 45.4114 14.73V20.995C45.4114 21.2517 45.5397 21.38 45.7964 21.38Z" fill="#1E1E1E"/>
<path d="M12.495 28.695L12.8486 29.0486H12.8486L12.495 28.695ZM12.495 14.835L12.1286 15.1752L12.1412 15.1888L12.1548 15.2014L12.495 14.835ZM15.89 12L15.5364 12.3536L15.5448 12.3617L15.89 12ZM15.89 31.53L16.2394 31.8877L16.2395 31.8876L15.89 31.53ZM7.105 29.65H10.92V28.65H7.105V29.65ZM10.92 29.65C11.7082 29.65 12.4023 29.4948 12.8486 29.0486L12.1414 28.3414C11.981 28.5019 11.6251 28.65 10.92 28.65V29.65ZM12.8486 29.0486C13.3127 28.5844 13.485 27.886 13.485 27.085H12.485C12.485 27.7774 12.3306 28.1523 12.1414 28.3414L12.8486 29.0486ZM13.485 27.085V16.41H12.485V27.085H13.485ZM13.485 16.41C13.485 15.6138 13.3147 14.9139 12.8352 14.4686L12.1548 15.2014C12.3286 15.3628 12.485 15.7128 12.485 16.41H13.485ZM12.8614 14.4948C12.4161 14.0153 11.7162 13.845 10.92 13.845V14.845C11.6172 14.845 11.9672 15.0014 12.1286 15.1752L12.8614 14.4948ZM10.92 13.845H7.105V14.845H10.92V13.845ZM7.105 13.845C6.89959 13.845 6.6537 13.8967 6.4627 14.0877C6.27169 14.2787 6.22 14.5246 6.22 14.73H7.22C7.22 14.6787 7.23248 14.7321 7.1698 14.7948C7.10713 14.8575 7.05374 14.845 7.105 14.845V13.845ZM6.22 14.73V28.765H7.22V14.73H6.22ZM6.22 28.765C6.22 28.9704 6.27169 29.2163 6.4627 29.4073C6.6537 29.5983 6.89959 29.65 7.105 29.65V28.65C7.05374 28.65 7.10713 28.6375 7.1698 28.7002C7.23248 28.7629 7.22 28.8163 7.22 28.765H6.22ZM2.775 32.265V11.23H1.775V32.265H2.775ZM2.775 11.23C2.775 11.1477 2.78546 11.096 2.79528 11.0666C2.80429 11.0395 2.81213 11.0325 2.8123 11.0323C2.81247 11.0321 2.81953 11.0243 2.84655 11.0153C2.87599 11.0055 2.92767 10.995 3.01 10.995V9.995C2.68793 9.995 2.35454 10.0759 2.1052 10.3252C1.85586 10.5745 1.775 10.9079 1.775 11.23H2.775ZM3.01 10.995H11.655V9.995H3.01V10.995ZM11.655 10.995C13.3816 10.995 14.6514 11.4685 15.5364 12.3536L16.2436 11.6464C15.1219 10.5248 13.5684 9.995 11.655 9.995V10.995ZM15.5448 12.3617C16.4466 13.2225 16.93 14.4759 16.93 16.2H17.93C17.93 14.2841 17.3868 12.7375 16.2352 11.6383L15.5448 12.3617ZM16.93 16.2V27.295H17.93V16.2H16.93ZM16.93 27.295C16.93 29.0184 16.4468 30.2868 15.5405 31.1724L16.2395 31.8876C17.3866 30.7666 17.93 29.2116 17.93 27.295H16.93ZM15.5406 31.1723C14.6561 32.0363 13.3848 32.5 11.655 32.5V33.5C13.5652 33.5 15.1172 32.9837 16.2394 31.8877L15.5406 31.1723ZM11.655 32.5H3.01V33.5H11.655V32.5ZM3.01 32.5C2.92767 32.5 2.876 32.4895 2.84655 32.4797C2.81953 32.4707 2.81247 32.4629 2.8123 32.4627C2.81213 32.4625 2.80429 32.4555 2.79528 32.4284C2.78546 32.399 2.775 32.3473 2.775 32.265H1.775C1.775 32.5871 1.85586 32.9205 2.1052 33.1698C2.35454 33.4191 2.68793 33.5 3.01 33.5V32.5ZM31.8407 28.695L32.1943 29.0486L31.8407 28.695ZM31.8407 14.835L31.4743 15.1752L31.4869 15.1888L31.5005 15.2014L31.8407 14.835ZM35.2357 12L34.8821 12.3536L34.8905 12.3617L35.2357 12ZM35.2357 31.53L35.5851 31.8877L35.5852 31.8876L35.2357 31.53ZM26.4507 29.65H30.2657V28.65H26.4507V29.65ZM30.2657 29.65C31.0539 29.65 31.748 29.4948 32.1943 29.0486L31.4872 28.3414C31.3267 28.5019 30.9708 28.65 30.2657 28.65V29.65ZM32.1943 29.0486C32.6584 28.5844 32.8307 27.886 32.8307 27.085H31.8307C31.8307 27.7774 31.6763 28.1523 31.4872 28.3414L32.1943 29.0486ZM32.8307 27.085V16.41H31.8307V27.085H32.8307ZM32.8307 16.41C32.8307 15.6138 32.6604 14.9139 32.1809 14.4686L31.5005 15.2014C31.6743 15.3628 31.8307 15.7128 31.8307 16.41H32.8307ZM32.2071 14.4948C31.7618 14.0153 31.0619 13.845 30.2657 13.845V14.845C30.9629 14.845 31.3129 15.0014 31.4743 15.1752L32.2071 14.4948ZM30.2657 13.845H26.4507V14.845H30.2657V13.845ZM26.4507 13.845C26.2453 13.845 25.9994 13.8967 25.8084 14.0877C25.6174 14.2787 25.5657 14.5246 25.5657 14.73H26.5657C26.5657 14.6787 26.5782 14.7321 26.5155 14.7948C26.4528 14.8575 26.3994 14.845 26.4507 14.845V13.845ZM25.5657 14.73V28.765H26.5657V14.73H25.5657ZM25.5657 28.765C25.5657 28.9704 25.6174 29.2163 25.8084 29.4073C25.9994 29.5983 26.2453 29.65 26.4507 29.65V28.65C26.3994 28.65 26.4528 28.6375 26.5155 28.7002C26.5782 28.7629 26.5657 28.8163 26.5657 28.765H25.5657ZM22.1207 32.265V11.23H21.1207V32.265H22.1207ZM22.1207 11.23C22.1207 11.1477 22.1312 11.096 22.141 11.0666C22.15 11.0395 22.1578 11.0325 22.158 11.0323C22.1582 11.0321 22.1652 11.0243 22.1923 11.0153C22.2217 11.0055 22.2734 10.995 22.3557 10.995V9.995C22.0336 9.995 21.7002 10.0759 21.4509 10.3252C21.2016 10.5745 21.1207 10.9079 21.1207 11.23H22.1207ZM22.3557 10.995H31.0007V9.995H22.3557V10.995ZM31.0007 10.995C32.7273 10.995 33.9971 11.4685 34.8822 12.3536L35.5893 11.6464C34.4676 10.5248 32.9141 9.995 31.0007 9.995V10.995ZM34.8905 12.3617C35.7923 13.2225 36.2757 14.4759 36.2757 16.2H37.2757C37.2757 14.2841 36.7325 12.7375 35.5809 11.6383L34.8905 12.3617ZM36.2757 16.2V27.295H37.2757V16.2H36.2757ZM36.2757 27.295C36.2757 29.0184 35.7925 30.2868 34.8862 31.1724L35.5852 31.8876C36.7323 30.7666 37.2757 29.2116 37.2757 27.295H36.2757ZM34.8863 31.1723C34.0018 32.0363 32.7305 32.5 31.0007 32.5V33.5C32.9109 33.5 34.463 32.9837 35.5851 31.8877L34.8863 31.1723ZM31.0007 32.5H22.3557V33.5H31.0007V32.5ZM22.3557 32.5C22.2734 32.5 22.2217 32.4895 22.1923 32.4797C22.1652 32.4707 22.1582 32.4629 22.158 32.4627C22.1578 32.4625 22.15 32.4555 22.141 32.4284C22.1312 32.399 22.1207 32.3473 22.1207 32.265H21.1207C21.1207 32.5871 21.2016 32.9205 21.4509 33.1698C21.7002 33.4191 22.0336 33.5 22.3557 33.5V32.5ZM54.4764 12L54.1228 12.3536L54.127 12.3577L54.4764 12ZM54.4764 23.795L54.8258 24.1527L54.83 24.1486L54.4764 23.795ZM51.0814 20.925L51.435 21.2786L51.4415 21.272L51.4478 21.2652L51.0814 20.925ZM51.0814 14.835L50.715 15.1752L50.7213 15.182L50.7279 15.1886L51.0814 14.835ZM44.6764 32.5H41.7014V33.5H44.6764V32.5ZM41.7014 32.5C41.6191 32.5 41.5674 32.4895 41.538 32.4797C41.5109 32.4707 41.5039 32.4629 41.5037 32.4627C41.5035 32.4625 41.4957 32.4555 41.4867 32.4284C41.4769 32.399 41.4664 32.3473 41.4664 32.265H40.4664C40.4664 32.5871 40.5473 32.9205 40.7966 33.1698C41.0459 33.4191 41.3793 33.5 41.7014 33.5V32.5ZM41.4664 32.265V11.23H40.4664V32.265H41.4664ZM41.4664 11.23C41.4664 11.1477 41.4769 11.096 41.4867 11.0666C41.4957 11.0395 41.5035 11.0325 41.5037 11.0323C41.5039 11.0321 41.5109 11.0243 41.538 11.0153C41.5674 11.0055 41.6191 10.995 41.7014 10.995V9.995C41.3793 9.995 41.0459 10.0759 40.7966 10.3252C40.5473 10.5745 40.4664 10.9079 40.4664 11.23H41.4664ZM41.7014 10.995H50.2414V9.995H41.7014V10.995ZM50.2414 10.995C51.968 10.995 53.2378 11.4685 54.1229 12.3536L54.83 11.6464C53.7083 10.5248 52.1548 9.995 50.2414 9.995V10.995ZM54.127 12.3577C55.0077 13.2179 55.4814 14.4727 55.4814 16.2H56.4814C56.4814 14.2873 55.9518 12.7421 54.8258 11.6423L54.127 12.3577ZM55.4814 16.2V19.56H56.4814V16.2H55.4814ZM55.4814 19.56C55.4814 21.2866 55.0079 22.5564 54.1229 23.4414L54.83 24.1486C55.9516 23.0269 56.4814 21.4734 56.4814 19.56H55.4814ZM54.127 23.4373C53.2425 24.3013 51.9712 24.765 50.2414 24.765V25.765C52.1516 25.765 53.7037 25.2487 54.8258 24.1527L54.127 23.4373ZM50.2414 24.765H45.8314V25.765H50.2414V24.765ZM45.8314 24.765C45.6246 24.765 45.3762 24.8115 45.1785 24.9927C44.9726 25.1814 44.9114 25.4329 44.9114 25.65H45.9114C45.9114 25.63 45.9143 25.6339 45.9076 25.6524C45.8998 25.6738 45.8831 25.7034 45.8543 25.7298C45.7966 25.7827 45.7582 25.765 45.8314 25.765V24.765ZM44.9114 25.65V32.265H45.9114V25.65H44.9114ZM44.9114 32.265C44.9114 32.3473 44.9009 32.399 44.8911 32.4284C44.8821 32.4555 44.8743 32.4625 44.8741 32.4627C44.8739 32.4629 44.8669 32.4707 44.8399 32.4797C44.8104 32.4895 44.7587 32.5 44.6764 32.5V33.5C44.9985 33.5 45.3319 33.4191 45.5812 33.1698C45.8306 32.9205 45.9114 32.5871 45.9114 32.265H44.9114ZM45.7964 21.88H49.5064V20.88H45.7964V21.88ZM49.5064 21.88C50.2946 21.88 50.9887 21.7248 51.435 21.2786L50.7279 20.5714C50.5674 20.7319 50.2115 20.88 49.5064 20.88V21.88ZM51.4478 21.2652C51.8769 20.8031 52.0364 20.1252 52.0364 19.35H51.0364C51.0364 20.0215 50.8926 20.3935 50.715 20.5848L51.4478 21.2652ZM52.0364 19.35V16.41H51.0364V19.35H52.0364ZM52.0364 16.41C52.0364 15.6218 51.8812 14.9277 51.435 14.4814L50.7279 15.1886C50.8883 15.349 51.0364 15.7049 51.0364 16.41H52.0364ZM51.4478 14.4948C51.0025 14.0153 50.3026 13.845 49.5064 13.845V14.845C50.2036 14.845 50.5536 15.0014 50.715 15.1752L51.4478 14.4948ZM49.5064 13.845H45.7964V14.845H49.5064V13.845ZM45.7964 13.845C45.591 13.845 45.3451 13.8967 45.1541 14.0877C44.9631 14.2787 44.9114 14.5246 44.9114 14.73H45.9114C45.9114 14.6787 45.9239 14.7321 45.8612 14.7948C45.7985 14.8575 45.7451 14.845 45.7964 14.845V13.845ZM44.9114 14.73V20.995H45.9114V14.73H44.9114ZM44.9114 20.995C44.9114 21.2004 44.9631 21.4463 45.1541 21.6373C45.3451 21.8283 45.591 21.88 45.7964 21.88V20.88C45.7451 20.88 45.7985 20.8675 45.8612 20.9302C45.9239 20.9929 45.9114 21.0463 45.9114 20.995H44.9114Z" fill="#0F2440"/>
<path d="M66.233 20.79H67.432C67.6667 20.79 67.8317 20.7423 67.927 20.647C68.0297 20.5443 68.081 20.3757 68.081 20.141V16.786C68.081 16.5513 68.0297 16.3863 67.927 16.291C67.8317 16.1883 67.6667 16.137 67.432 16.137H66.233C66.1523 16.137 66.112 16.1773 66.112 16.258V20.669C66.112 20.7497 66.1523 20.79 66.233 20.79ZM64.715 21.769V15.158C64.715 15.004 64.792 14.927 64.946 14.927H67.663C68.235 14.927 68.6787 15.0847 68.994 15.4C69.3167 15.708 69.478 16.148 69.478 16.72V20.207C69.478 20.779 69.3167 21.2227 68.994 21.538C68.6787 21.846 68.235 22 67.663 22H64.946C64.792 22 64.715 21.923 64.715 21.769ZM75.0631 22H71.4661C71.3121 22 71.2351 21.923 71.2351 21.769V15.158C71.2351 15.004 71.3121 14.927 71.4661 14.927H75.0631C75.2097 14.927 75.2831 15.004 75.2831 15.158V15.906C75.2831 16.06 75.2097 16.137 75.0631 16.137H72.7641C72.6761 16.137 72.6321 16.1773 72.6321 16.258V17.688C72.6321 17.7687 72.6761 17.809 72.7641 17.809H74.6451C74.7991 17.809 74.8761 17.886 74.8761 18.04V18.788C74.8761 18.942 74.7991 19.019 74.6451 19.019H72.7641C72.6761 19.019 72.6321 19.0593 72.6321 19.14V20.669C72.6321 20.7497 72.6761 20.79 72.7641 20.79H75.0631C75.2097 20.79 75.2831 20.867 75.2831 21.021V21.769C75.2831 21.923 75.2097 22 75.0631 22ZM79.8208 22H78.3798C78.2258 22 78.1341 21.923 78.1048 21.769L76.3998 15.18C76.3484 15.0113 76.4218 14.927 76.6198 14.927H77.6538C77.8004 14.927 77.8884 15.004 77.9178 15.158L79.0728 20.57H79.1168L80.2718 15.158C80.3011 15.004 80.3891 14.927 80.5358 14.927H81.5698C81.7531 14.927 81.8264 15.0113 81.7898 15.18L80.0848 21.769C80.0481 21.923 79.9601 22 79.8208 22ZM86.9431 22H83.3461C83.1921 22 83.1151 21.923 83.1151 21.769V15.158C83.1151 15.004 83.1921 14.927 83.3461 14.927H86.9431C87.0897 14.927 87.1631 15.004 87.1631 15.158V15.906C87.1631 16.06 87.0897 16.137 86.9431 16.137H84.6441C84.5561 16.137 84.5121 16.1773 84.5121 16.258V17.688C84.5121 17.7687 84.5561 17.809 84.6441 17.809H86.5251C86.6791 17.809 86.7561 17.886 86.7561 18.04V18.788C86.7561 18.942 86.6791 19.019 86.5251 19.019H84.6441C84.5561 19.019 84.5121 19.0593 84.5121 19.14V20.669C84.5121 20.7497 84.5561 20.79 84.6441 20.79H86.9431C87.0897 20.79 87.1631 20.867 87.1631 21.021V21.769C87.1631 21.923 87.0897 22 86.9431 22ZM92.6688 22H89.0498C88.8958 22 88.8188 21.923 88.8188 21.769V15.158C88.8188 15.004 88.8958 14.927 89.0498 14.927H89.9848C90.1388 14.927 90.2158 15.004 90.2158 15.158V20.658C90.2158 20.7387 90.2598 20.779 90.3478 20.779H92.6688C92.8154 20.779 92.8888 20.8597 92.8888 21.021V21.769C92.8888 21.923 92.8154 22 92.6688 22ZM96.1252 20.79H96.9062C97.1408 20.79 97.3058 20.7423 97.4012 20.647C97.5038 20.5443 97.5552 20.3757 97.5552 20.141V16.786C97.5552 16.5513 97.5038 16.3863 97.4012 16.291C97.3058 16.1883 97.1408 16.137 96.9062 16.137H96.1252C95.8905 16.137 95.7255 16.1883 95.6302 16.291C95.5348 16.3863 95.4872 16.5513 95.4872 16.786V20.141C95.4872 20.3757 95.5348 20.5443 95.6302 20.647C95.7255 20.7423 95.8905 20.79 96.1252 20.79ZM97.1372 22H95.9052C95.3258 22 94.8785 21.846 94.5632 21.538C94.2478 21.23 94.0902 20.7863 94.0902 20.207V16.72C94.0902 16.1407 94.2478 15.697 94.5632 15.389C94.8785 15.081 95.3258 14.927 95.9052 14.927H97.1372C97.7165 14.927 98.1638 15.081 98.4792 15.389C98.7945 15.697 98.9522 16.1407 98.9522 16.72V20.207C98.9522 20.7863 98.7945 21.23 98.4792 21.538C98.1638 21.846 97.7165 22 97.1372 22ZM101.875 22H100.94C100.786 22 100.709 21.923 100.709 21.769V15.158C100.709 15.004 100.786 14.927 100.94 14.927H103.624C104.196 14.927 104.64 15.0847 104.955 15.4C105.271 15.708 105.428 16.148 105.428 16.72V17.776C105.428 18.348 105.271 18.7917 104.955 19.107C104.64 19.415 104.196 19.569 103.624 19.569H102.238C102.15 19.569 102.106 19.6093 102.106 19.69V21.769C102.106 21.923 102.029 22 101.875 22ZM102.227 18.348H103.393C103.628 18.348 103.793 18.3003 103.888 18.205C103.984 18.1023 104.031 17.9373 104.031 17.71V16.786C104.031 16.5513 103.984 16.3863 103.888 16.291C103.793 16.1883 103.628 16.137 103.393 16.137H102.227C102.147 16.137 102.106 16.1773 102.106 16.258V18.227C102.106 18.3077 102.147 18.348 102.227 18.348ZM111.68 14.927H113.308C113.462 14.927 113.539 15.004 113.539 15.158V21.769C113.539 21.923 113.462 22 113.308 22H112.406C112.252 22 112.175 21.923 112.175 21.769V16.555H112.131L111.009 20.24C110.965 20.3867 110.873 20.46 110.734 20.46H109.81C109.67 20.46 109.579 20.3867 109.535 20.24L108.391 16.544H108.347V21.769C108.347 21.857 108.332 21.9193 108.303 21.956C108.273 21.9853 108.211 22 108.116 22H107.214C107.06 22 106.983 21.923 106.983 21.769V15.158C106.983 15.004 107.06 14.927 107.214 14.927H108.853C108.955 14.927 109.025 14.9783 109.062 15.081L110.228 18.964H110.294L111.471 15.081C111.493 14.9783 111.562 14.927 111.68 14.927ZM119.232 22H115.635C115.481 22 115.404 21.923 115.404 21.769V15.158C115.404 15.004 115.481 14.927 115.635 14.927H119.232C119.379 14.927 119.452 15.004 119.452 15.158V15.906C119.452 16.06 119.379 16.137 119.232 16.137H116.933C116.845 16.137 116.801 16.1773 116.801 16.258V17.688C116.801 17.7687 116.845 17.809 116.933 17.809H118.814C118.968 17.809 119.045 17.886 119.045 18.04V18.788C119.045 18.942 118.968 19.019 118.814 19.019H116.933C116.845 19.019 116.801 19.0593 116.801 19.14V20.669C116.801 20.7497 116.845 20.79 116.933 20.79H119.232C119.379 20.79 119.452 20.867 119.452 21.021V21.769C119.452 21.923 119.379 22 119.232 22ZM122.252 22H121.339C121.185 22 121.108 21.923 121.108 21.769V15.158C121.108 15.004 121.185 14.927 121.339 14.927H122.164C122.318 14.927 122.42 14.9783 122.472 15.081L124.694 19.25H124.738V15.158C124.738 15.004 124.815 14.927 124.969 14.927H125.882C126.036 14.927 126.113 15.004 126.113 15.158V21.769C126.113 21.923 126.036 22 125.882 22H125.079C124.917 22 124.8 21.9267 124.727 21.78L122.527 17.688H122.483V21.769C122.483 21.923 122.406 22 122.252 22ZM130.171 22H129.247C129.086 22 129.005 21.923 129.005 21.769V16.258C129.005 16.1773 128.965 16.137 128.884 16.137H127.63C127.476 16.137 127.399 16.06 127.399 15.906V15.158C127.399 15.004 127.476 14.927 127.63 14.927H131.788C131.942 14.927 132.019 15.004 132.019 15.158V15.906C132.019 16.06 131.942 16.137 131.788 16.137H130.534C130.446 16.137 130.402 16.1773 130.402 16.258V21.769C130.402 21.923 130.325 22 130.171 22Z" fill="#1E1E1E"/>
<path d="M66.233 31.79H67.432C67.6667 31.79 67.8317 31.7423 67.927 31.647C68.0297 31.5443 68.081 31.3757 68.081 31.141V27.786C68.081 27.5513 68.0297 27.3863 67.927 27.291C67.8317 27.1883 67.6667 27.137 67.432 27.137H66.233C66.1523 27.137 66.112 27.1773 66.112 27.258V31.669C66.112 31.7497 66.1523 31.79 66.233 31.79ZM64.715 32.769V26.158C64.715 26.004 64.792 25.927 64.946 25.927H67.663C68.235 25.927 68.6787 26.0847 68.994 26.4C69.3167 26.708 69.478 27.148 69.478 27.72V31.207C69.478 31.779 69.3167 32.2227 68.994 32.538C68.6787 32.846 68.235 33 67.663 33H64.946C64.792 33 64.715 32.923 64.715 32.769ZM71.9721 33H70.9161C70.7841 33 70.7401 32.923 70.7841 32.769L72.5221 26.158C72.5734 26.004 72.6834 25.927 72.8521 25.927H74.3151C74.4984 25.927 74.6084 26.004 74.6451 26.158L76.3831 32.769C76.4271 32.923 76.3831 33 76.2511 33H75.1951C75.1144 33 75.0594 32.9853 75.0301 32.956C75.0007 32.9193 74.9787 32.857 74.9641 32.769L74.6561 31.559H72.5111L72.2031 32.769C72.1884 32.857 72.1627 32.9193 72.1261 32.956C72.0967 32.9853 72.0454 33 71.9721 33ZM73.5671 27.258L72.7751 30.437H74.4031L73.6111 27.258H73.5671ZM79.9871 33H79.0631C78.9018 33 78.8211 32.923 78.8211 32.769V27.258C78.8211 27.1773 78.7808 27.137 78.7001 27.137H77.4461C77.2921 27.137 77.2151 27.06 77.2151 26.906V26.158C77.2151 26.004 77.2921 25.927 77.4461 25.927H81.6041C81.7581 25.927 81.8351 26.004 81.8351 26.158V26.906C81.8351 27.06 81.7581 27.137 81.6041 27.137H80.3501C80.2621 27.137 80.2181 27.1773 80.2181 27.258V32.769C80.2181 32.923 80.1411 33 79.9871 33ZM83.8521 33H82.7961C82.6641 33 82.6201 32.923 82.6641 32.769L84.4021 26.158C84.4534 26.004 84.5634 25.927 84.7321 25.927H86.1951C86.3784 25.927 86.4884 26.004 86.5251 26.158L88.2631 32.769C88.3071 32.923 88.2631 33 88.1311 33H87.0751C86.9944 33 86.9394 32.9853 86.9101 32.956C86.8807 32.9193 86.8587 32.857 86.8441 32.769L86.5361 31.559H84.3911L84.0831 32.769C84.0684 32.857 84.0427 32.9193 84.0061 32.956C83.9767 32.9853 83.9254 33 83.8521 33ZM85.4471 27.258L84.6551 30.437H86.2831L85.4911 27.258H85.4471ZM93.7011 33H92.7661C92.6121 33 92.5351 32.923 92.5351 32.769V26.158C92.5351 26.004 92.6121 25.927 92.7661 25.927H95.4501C96.0221 25.927 96.4658 26.0847 96.7811 26.4C97.0965 26.708 97.2541 27.148 97.2541 27.72V28.776C97.2541 29.348 97.0965 29.7917 96.7811 30.107C96.4658 30.415 96.0221 30.569 95.4501 30.569H94.0641C93.9761 30.569 93.9321 30.6093 93.9321 30.69V32.769C93.9321 32.923 93.8551 33 93.7011 33ZM94.0531 29.348H95.2191C95.4538 29.348 95.6188 29.3003 95.7141 29.205C95.8095 29.1023 95.8571 28.9373 95.8571 28.71V27.786C95.8571 27.5513 95.8095 27.3863 95.7141 27.291C95.6188 27.1883 95.4538 27.137 95.2191 27.137H94.0531C93.9725 27.137 93.9321 27.1773 93.9321 27.258V29.227C93.9321 29.3077 93.9725 29.348 94.0531 29.348ZM102.658 33H99.0391C98.8851 33 98.8081 32.923 98.8081 32.769V26.158C98.8081 26.004 98.8851 25.927 99.0391 25.927H99.9741C100.128 25.927 100.205 26.004 100.205 26.158V31.658C100.205 31.7387 100.249 31.779 100.337 31.779H102.658C102.805 31.779 102.878 31.8597 102.878 32.021V32.769C102.878 32.923 102.805 33 102.658 33ZM104.927 33H103.871C103.739 33 103.695 32.923 103.739 32.769L105.477 26.158C105.528 26.004 105.638 25.927 105.807 25.927H107.27C107.453 25.927 107.563 26.004 107.6 26.158L109.338 32.769C109.382 32.923 109.338 33 109.206 33H108.15C108.069 33 108.014 32.9853 107.985 32.956C107.955 32.9193 107.933 32.857 107.919 32.769L107.611 31.559H105.466L105.158 32.769C105.143 32.857 105.117 32.9193 105.081 32.956C105.051 32.9853 105 33 104.927 33ZM106.522 27.258L105.73 30.437H107.358L106.566 27.258H106.522ZM112.942 33H112.018C111.856 33 111.776 32.923 111.776 32.769V27.258C111.776 27.1773 111.735 27.137 111.655 27.137H110.401C110.247 27.137 110.17 27.06 110.17 26.906V26.158C110.17 26.004 110.247 25.927 110.401 25.927H114.559C114.713 25.927 114.79 26.004 114.79 26.158V26.906C114.79 27.06 114.713 27.137 114.559 27.137H113.305C113.217 27.137 113.173 27.1773 113.173 27.258V32.769C113.173 32.923 113.096 33 112.942 33ZM117.236 33H116.301C116.147 33 116.07 32.923 116.07 32.769V26.158C116.07 26.004 116.147 25.927 116.301 25.927H119.81C119.956 25.927 120.03 26.004 120.03 26.158V26.906C120.03 27.06 119.956 27.137 119.81 27.137H117.599C117.511 27.137 117.467 27.1773 117.467 27.258V28.963C117.467 29.051 117.511 29.095 117.599 29.095H119.48C119.634 29.095 119.711 29.172 119.711 29.326V30.063C119.711 30.2243 119.634 30.305 119.48 30.305H117.599C117.511 30.305 117.467 30.3453 117.467 30.426V32.769C117.467 32.923 117.39 33 117.236 33ZM123.387 31.79H124.168C124.402 31.79 124.567 31.7423 124.663 31.647C124.765 31.5443 124.817 31.3757 124.817 31.141V27.786C124.817 27.5513 124.765 27.3863 124.663 27.291C124.567 27.1883 124.402 27.137 124.168 27.137H123.387C123.152 27.137 122.987 27.1883 122.892 27.291C122.796 27.3863 122.749 27.5513 122.749 27.786V31.141C122.749 31.3757 122.796 31.5443 122.892 31.647C122.987 31.7423 123.152 31.79 123.387 31.79ZM124.399 33H123.167C122.587 33 122.14 32.846 121.825 32.538C121.509 32.23 121.352 31.7863 121.352 31.207V27.72C121.352 27.1407 121.509 26.697 121.825 26.389C122.14 26.081 122.587 25.927 123.167 25.927H124.399C124.978 25.927 125.425 26.081 125.741 26.389C126.056 26.697 126.214 27.1407 126.214 27.72V31.207C126.214 31.7863 126.056 32.23 125.741 32.538C125.425 32.846 124.978 33 124.399 33ZM129.137 33H128.202C128.048 33 127.971 32.923 127.971 32.769V26.158C127.971 26.004 128.048 25.927 128.202 25.927H130.82C131.392 25.927 131.839 26.0847 132.162 26.4C132.485 26.7153 132.646 27.159 132.646 27.731V28.589C132.646 29.4177 132.32 29.9677 131.667 30.239V30.283L132.844 32.736C132.91 32.912 132.848 33 132.657 33H131.766C131.634 33 131.539 32.9853 131.48 32.956C131.421 32.9267 131.374 32.8643 131.337 32.769L130.237 30.393H129.5C129.412 30.393 129.368 30.4333 129.368 30.514V32.769C129.368 32.923 129.291 33 129.137 33ZM129.489 29.271H130.567C130.802 29.271 130.974 29.2233 131.084 29.128C131.194 29.0253 131.249 28.864 131.249 28.644V27.786C131.249 27.5587 131.194 27.3937 131.084 27.291C130.974 27.1883 130.802 27.137 130.567 27.137H129.489C129.408 27.137 129.368 27.1773 129.368 27.258V29.15C129.368 29.2307 129.408 29.271 129.489 29.271ZM139.124 25.927H140.752C140.906 25.927 140.983 26.004 140.983 26.158V32.769C140.983 32.923 140.906 33 140.752 33H139.85C139.696 33 139.619 32.923 139.619 32.769V27.555H139.575L138.453 31.24C138.409 31.3867 138.317 31.46 138.178 31.46H137.254C137.114 31.46 137.023 31.3867 136.979 31.24L135.835 27.544H135.791V32.769C135.791 32.857 135.776 32.9193 135.747 32.956C135.717 32.9853 135.655 33 135.56 33H134.658C134.504 33 134.427 32.923 134.427 32.769V26.158C134.427 26.004 134.504 25.927 134.658 25.927H136.297C136.399 25.927 136.469 25.9783 136.506 26.081L137.672 29.964H137.738L138.915 26.081C138.937 25.9783 139.006 25.927 139.124 25.927Z" fill="#1E1E1E"/>
</svg>
