<svg width="68" height="40" viewBox="0 0 68 40" fill="none" xmlns="http://www.w3.org/2000/svg">
<path d="M6.17827 25.7826H9.49567C10.145 25.7826 10.6015 25.6507 10.8652 25.3869C11.1493 25.1028 11.2913 24.6362 11.2913 23.9869V14.7043C11.2913 14.055 11.1493 13.5985 10.8652 13.3347C10.6015 13.0507 10.145 12.9087 9.49567 12.9087H6.17827C5.95508 12.9087 5.84349 13.0202 5.84349 13.2434V25.4478C5.84349 25.671 5.95508 25.7826 6.17827 25.7826ZM1.97827 28.4913V10.2C1.97827 9.77387 2.19131 9.56083 2.6174 9.56083H10.1348C11.7174 9.56083 12.945 9.99709 13.8174 10.8695C14.7102 11.7217 15.1565 12.9391 15.1565 14.5217V24.1695C15.1565 25.7521 14.7102 26.9797 13.8174 27.8521C12.945 28.7043 11.7174 29.1304 10.1348 29.1304H2.6174C2.19131 29.1304 1.97827 28.9173 1.97827 28.4913ZM23.0311 29.1304H22.3006C20.6978 29.1304 19.46 28.7043 18.5876 27.8521C17.7151 27 17.2789 25.7724 17.2789 24.1695V18.5695C17.2789 16.9667 17.7151 15.7391 18.5876 14.8869C19.46 14.0347 20.6978 13.6087 22.3006 13.6087H29.3311C29.7774 13.6087 30.0006 13.8217 30.0006 14.2478V28.4913C30.0006 28.9173 29.7774 29.1304 29.3311 29.1304H26.7745C26.3485 29.1304 26.1354 28.9173 26.1354 28.4913V27.4869H26.0137C25.7905 28.0347 25.3948 28.4507 24.8267 28.7347C24.2586 28.9985 23.66 29.1304 23.0311 29.1304ZM26.1354 23.4695V17.2913C26.1354 17.068 26.0137 16.9565 25.7702 16.9565H22.9093C22.26 16.9565 21.8035 17.0985 21.5398 17.3826C21.276 17.6463 21.1441 18.1028 21.1441 18.7521V23.9869C21.1441 24.6362 21.276 25.1028 21.5398 25.3869C21.8035 25.6507 22.26 25.7826 22.9093 25.7826H24.0354C25.4354 25.7826 26.1354 25.0115 26.1354 23.4695ZM35.8008 29.1304H33.2138C32.7878 29.1304 32.5747 28.9173 32.5747 28.4913V8.37387C32.5747 7.94778 32.7878 7.73474 33.2138 7.73474H35.8008C36.2269 7.73474 36.4399 7.94778 36.4399 8.37387V28.4913C36.4399 28.9173 36.2269 29.1304 35.8008 29.1304ZM44.5073 28.4304H43.503C41.9406 28.4304 40.7537 28.0043 39.9421 27.1521C39.1508 26.3 38.7552 25.0724 38.7552 23.4695V18.5695C38.7552 16.9667 39.1914 15.7391 40.0638 14.8869C40.9363 14.0347 42.174 13.6087 43.7769 13.6087H50.8073C51.2537 13.6087 51.4769 13.8217 51.4769 14.2478V29.2521C51.4769 30.8347 51.0305 32.0521 50.1378 32.9043C49.2653 33.7565 48.0378 34.1826 46.4552 34.1826H40.6117C40.3682 34.1826 40.1958 34.1319 40.0943 34.0304C40.0132 33.9493 39.9725 33.7971 39.9725 33.5739V31.4739C39.9725 31.0478 40.1856 30.8347 40.6117 30.8347H45.816C46.4653 30.8347 46.9219 30.6927 47.1856 30.4087C47.4697 30.1449 47.6117 29.6985 47.6117 29.0695V26.7565H47.4899C47.2667 27.3043 46.8711 27.7202 46.303 28.0043C45.7349 28.2884 45.1363 28.4304 44.5073 28.4304ZM47.6117 22.7695V17.2913C47.6117 17.068 47.4899 16.9565 47.2465 16.9565H44.3856C43.7363 16.9565 43.2798 17.0985 43.016 17.3826C42.7523 17.6463 42.6204 18.1028 42.6204 18.7521V23.2869C42.6204 23.9362 42.7523 24.3927 43.016 24.6565C43.2798 24.9202 43.7363 25.0521 44.3856 25.0521H45.5117C46.9117 25.0521 47.6117 24.2913 47.6117 22.7695ZM61.3242 29.1304H58.6155C57.0126 29.1304 55.7749 28.7043 54.9025 27.8521C54.03 27 53.5938 25.7724 53.5938 24.1695V18.5695C53.5938 16.9667 54.03 15.7391 54.9025 14.8869C55.7749 14.0347 57.0126 13.6087 58.6155 13.6087H61.3242C62.9068 13.6087 64.1344 14.0449 65.0068 14.9173C65.8996 15.7695 66.3459 16.9869 66.3459 18.5695V24.1695C66.3459 25.7521 65.8996 26.9797 65.0068 27.8521C64.1344 28.7043 62.9068 29.1304 61.3242 29.1304ZM59.1938 25.813H60.7459C61.3952 25.813 61.8518 25.6811 62.1155 25.4173C62.3996 25.1536 62.5416 24.6971 62.5416 24.0478V18.6913C62.5416 18.042 62.3996 17.5854 62.1155 17.3217C61.8518 17.058 61.3952 16.926 60.7459 16.926H59.1938C58.5445 16.926 58.0879 17.058 57.8242 17.3217C57.5605 17.5854 57.4285 18.042 57.4285 18.6913V24.0478C57.4285 24.6971 57.5605 25.1536 57.8242 25.4173C58.0879 25.6811 58.5445 25.813 59.1938 25.813Z" fill="#0F2440"/>
<path d="M10.8652 13.3348L10.5466 13.6307L10.5575 13.6425L10.5694 13.6534L10.8652 13.3348ZM13.8174 10.8696L13.5099 11.1771L13.5172 11.1841L13.8174 10.8696ZM6.17824 26.2174H9.49563V25.3479H6.17824V26.2174ZM9.49563 26.2174C10.181 26.2174 10.7846 26.0825 11.1727 25.6945L10.5577 25.0795C10.4182 25.2191 10.1088 25.3479 9.49563 25.3479V26.2174ZM11.1727 25.6945C11.5762 25.2908 11.7261 24.6835 11.7261 23.987H10.8565C10.8565 24.5891 10.7222 24.9151 10.5577 25.0795L11.1727 25.6945ZM11.7261 23.987V14.7044H10.8565V23.987H11.7261ZM11.7261 14.7044C11.7261 14.012 11.578 13.4034 11.161 13.0162L10.5694 13.6534C10.7205 13.7938 10.8565 14.0981 10.8565 14.7044H11.7261ZM11.1838 13.039C10.7966 12.622 10.188 12.474 9.49563 12.474V13.3435C10.1019 13.3435 10.4062 13.4795 10.5466 13.6307L11.1838 13.039ZM9.49563 12.474H6.17824V13.3435H9.49563V12.474ZM6.17824 12.474C5.99962 12.474 5.7858 12.5189 5.61972 12.685C5.45362 12.8511 5.40867 13.0649 5.40867 13.2435H6.27824C6.27824 13.1989 6.28909 13.2454 6.23459 13.2999C6.18009 13.3544 6.13366 13.3435 6.17824 13.3435V12.474ZM5.40867 13.2435V25.4479H6.27824V13.2435H5.40867ZM5.40867 25.4479C5.40867 25.6265 5.45362 25.8403 5.61972 26.0064C5.7858 26.1725 5.99962 26.2174 6.17824 26.2174V25.3479C6.13366 25.3479 6.18009 25.337 6.23459 25.3915C6.28909 25.446 6.27824 25.4925 6.27824 25.4479H5.40867ZM2.41302 28.4914V10.2H1.54346V28.4914H2.41302ZM2.41302 10.2C2.41302 10.1285 2.42212 10.0835 2.43066 10.058C2.43849 10.0344 2.44531 10.0283 2.44546 10.0281C2.4456 10.028 2.45174 10.0212 2.47524 10.0134C2.50084 10.0048 2.54578 9.9957 2.61737 9.9957V9.12614C2.33731 9.12614 2.0474 9.19648 1.83059 9.41327C1.61377 9.63005 1.54346 9.91996 1.54346 10.2H2.41302ZM2.61737 9.9957H10.1348V9.12614H2.61737V9.9957ZM10.1348 9.9957C11.6362 9.9957 12.7403 10.4074 13.5099 11.1771L14.1248 10.5621C13.1495 9.58683 11.7986 9.12614 10.1348 9.12614V9.9957ZM13.5172 11.1841C14.3014 11.9327 14.7217 13.0226 14.7217 14.5218H15.5913C15.5913 12.8558 15.1189 11.5109 14.1175 10.5551L13.5172 11.1841ZM14.7217 14.5218V24.1696H15.5913V14.5218H14.7217ZM14.7217 24.1696C14.7217 25.6682 14.3015 26.7712 13.5135 27.5413L14.1212 28.1633C15.1187 27.1885 15.5913 25.8362 15.5913 24.1696H14.7217ZM13.5135 27.5413C12.7443 28.2926 11.6389 28.6957 10.1348 28.6957V29.5653C11.7958 29.5653 13.1454 29.1163 14.1212 28.1633L13.5135 27.5413ZM10.1348 28.6957H2.61737V29.5653H10.1348V28.6957ZM2.61737 28.6957C2.54578 28.6957 2.50085 28.6866 2.47524 28.678C2.45174 28.6702 2.4456 28.6634 2.44546 28.6633C2.44532 28.6631 2.43849 28.657 2.43066 28.6334C2.42212 28.6079 2.41302 28.5629 2.41302 28.4914H1.54346C1.54346 28.7714 1.61377 29.0614 1.83059 29.2781C2.0474 29.4949 2.33731 29.5653 2.61737 29.5653V28.6957ZM26.1354 27.487H26.5701V27.0522H26.1354V27.487ZM26.0136 27.487V27.0522H25.7213L25.611 27.323L26.0136 27.487ZM24.8267 28.7348L25.0098 29.1292L25.0155 29.1266L25.0211 29.1237L24.8267 28.7348ZM21.5397 17.3827L21.8472 17.6901L21.8528 17.6844L21.8583 17.6785L21.5397 17.3827ZM21.5397 25.387L21.2211 25.6828L21.2266 25.6887L21.2323 25.6945L21.5397 25.387ZM23.031 28.6957H22.3006V29.5653H23.031V28.6957ZM22.3006 28.6957C20.7743 28.6957 19.6595 28.2915 18.8914 27.5412L18.2837 28.1633C19.2605 29.1173 20.6211 29.5653 22.3006 29.5653V28.6957ZM18.8914 27.5412C18.1266 26.7942 17.7136 25.6938 17.7136 24.1696H16.8441C16.8441 25.8513 17.3035 27.2059 18.2837 28.1633L18.8914 27.5412ZM17.7136 24.1696V18.5696H16.8441V24.1696H17.7136ZM17.7136 18.5696C17.7136 17.0454 18.1266 15.945 18.8914 15.198L18.2837 14.576C17.3035 15.5334 16.8441 16.888 16.8441 18.5696H17.7136ZM18.8914 15.198C19.6595 14.4477 20.7743 14.0435 22.3006 14.0435V13.174C20.6211 13.174 19.2605 13.622 18.2837 14.576L18.8914 15.198ZM22.3006 14.0435H29.331V13.174H22.3006V14.0435ZM29.331 14.0435C29.4921 14.0435 29.5322 14.0823 29.533 14.083C29.5343 14.0843 29.5408 14.0902 29.5482 14.1116C29.5565 14.1353 29.5658 14.178 29.5658 14.2479H30.4354C30.4354 13.9625 30.3596 13.67 30.1334 13.454C29.911 13.2417 29.6163 13.174 29.331 13.174V14.0435ZM29.5658 14.2479V28.4914H30.4354V14.2479H29.5658ZM29.5658 28.4914C29.5658 28.5612 29.5565 28.604 29.5482 28.6276C29.5408 28.649 29.5343 28.6549 29.533 28.6562C29.5322 28.6569 29.4921 28.6957 29.331 28.6957V29.5653C29.6163 29.5653 29.911 29.4975 30.1334 29.2852C30.3596 29.0693 30.4354 28.7767 30.4354 28.4914H29.5658ZM29.331 28.6957H26.7745V29.5653H29.331V28.6957ZM26.7745 28.6957C26.7029 28.6957 26.658 28.6866 26.6324 28.678C26.6088 28.6702 26.6028 28.6634 26.6026 28.6633C26.6024 28.6631 26.5956 28.657 26.5878 28.6334C26.5793 28.6079 26.5701 28.5629 26.5701 28.4914H25.7006C25.7006 28.7714 25.7709 29.0614 25.9877 29.2781C26.2045 29.4949 26.4944 29.5653 26.7745 29.5653V28.6957ZM26.5701 28.4914V27.487H25.7006V28.4914H26.5701ZM26.1354 27.0522H26.0136V27.9218H26.1354V27.0522ZM25.611 27.323C25.4307 27.7655 25.1135 28.1054 24.6322 28.346L25.0211 29.1237C25.6761 28.7962 26.1502 28.3041 26.4163 27.651L25.611 27.323ZM24.6435 28.3405C24.1331 28.5775 23.597 28.6957 23.031 28.6957V29.5653C23.723 29.5653 24.3841 29.4197 25.0098 29.1292L24.6435 28.3405ZM26.5701 23.4696V17.2914H25.7006V23.4696H26.5701ZM26.5701 17.2914C26.5701 17.1026 26.5169 16.8839 26.3379 16.7198C26.166 16.5622 25.95 16.5218 25.7701 16.5218V17.3914C25.8338 17.3914 25.8004 17.4067 25.7502 17.3607C25.7252 17.3378 25.7107 17.312 25.704 17.2934C25.6981 17.2774 25.7006 17.274 25.7006 17.2914H26.5701ZM25.7701 16.5218H22.9093V17.3914H25.7701V16.5218ZM22.9093 16.5218C22.217 16.5218 21.6083 16.6699 21.2211 17.0868L21.8583 17.6785C21.9987 17.5274 22.303 17.3914 22.9093 17.3914V16.5218ZM21.2323 17.0752C20.8442 17.4633 20.7093 18.0668 20.7093 18.7522H21.5788C21.5788 18.1391 21.7076 17.8296 21.8472 17.6901L21.2323 17.0752ZM20.7093 18.7522V23.987H21.5788V18.7522H20.7093ZM20.7093 23.987C20.7093 24.6769 20.8462 25.279 21.2211 25.6828L21.8583 25.0912C21.7058 24.9268 21.5788 24.5957 21.5788 23.987H20.7093ZM21.2323 25.6945C21.6203 26.0825 22.2239 26.2174 22.9093 26.2174V25.3479C22.2961 25.3479 21.9867 25.2191 21.8472 25.0795L21.2323 25.6945ZM22.9093 26.2174H24.0354V25.3479H22.9093V26.2174ZM24.0354 26.2174C24.8138 26.2174 25.4742 26.0012 25.9322 25.4967C26.3831 25.0001 26.5701 24.2978 26.5701 23.4696H25.7006C25.7006 24.1834 25.5376 24.6377 25.2885 24.9121C25.0465 25.1787 24.6569 25.3479 24.0354 25.3479V26.2174ZM35.8008 28.6957H33.2138V29.5653H35.8008V28.6957ZM33.2138 28.6957C33.1422 28.6957 33.0973 28.6866 33.0717 28.678C33.0482 28.6702 33.0421 28.6634 33.0419 28.6633C33.0418 28.6631 33.0349 28.657 33.0271 28.6334C33.0186 28.6079 33.0094 28.5629 33.0094 28.4914H32.1399C32.1399 28.7714 32.2102 29.0614 32.427 29.2781C32.6439 29.4949 32.9338 29.5653 33.2138 29.5653V28.6957ZM33.0094 28.4914V8.37396H32.1399V28.4914H33.0094ZM33.0094 8.37396C33.0094 8.30237 33.0186 8.25743 33.0271 8.23183C33.0349 8.20834 33.0418 8.2022 33.0419 8.20205C33.0421 8.2019 33.0482 8.19508 33.0717 8.18725C33.0973 8.17871 33.1422 8.16961 33.2138 8.16961V7.30005C32.9338 7.30005 32.6439 7.37036 32.427 7.58718C32.2102 7.804 32.1399 8.0939 32.1399 8.37396H33.0094ZM33.2138 8.16961H35.8008V7.30005H33.2138V8.16961ZM35.8008 8.16961C35.8724 8.16961 35.9173 8.17871 35.9429 8.18725C35.9664 8.19508 35.9726 8.2019 35.9727 8.20205C35.9728 8.2022 35.9797 8.20834 35.9875 8.23183C35.9961 8.25743 36.0051 8.30237 36.0051 8.37396H36.8747C36.8747 8.0939 36.8044 7.804 36.5875 7.58718C36.3708 7.37036 36.0808 7.30005 35.8008 7.30005V8.16961ZM36.0051 8.37396V28.4914H36.8747V8.37396H36.0051ZM36.0051 28.4914C36.0051 28.5629 35.9961 28.6079 35.9875 28.6334C35.9797 28.657 35.9728 28.6631 35.9727 28.6633C35.9726 28.6634 35.9664 28.6702 35.9429 28.678C35.9173 28.6866 35.8724 28.6957 35.8008 28.6957V29.5653C36.0808 29.5653 36.3708 29.4949 36.5875 29.2781C36.8044 29.0614 36.8747 28.7714 36.8747 28.4914H36.0051ZM39.9421 27.1522L39.6235 27.4481L39.6272 27.452L39.9421 27.1522ZM50.1377 32.9044L49.8374 32.5899L49.8339 32.5934L50.1377 32.9044ZM47.1855 30.4087L46.8897 30.0901L46.8779 30.1011L46.8669 30.1129L47.1855 30.4087ZM47.6116 26.7566H48.0464V26.3218H47.6116V26.7566ZM47.4899 26.7566V26.3218H47.1975L47.0873 26.5926L47.4899 26.7566ZM43.016 17.3827L43.3234 17.6901L43.3291 17.6844L43.3346 17.6785L43.016 17.3827ZM44.5073 27.9957H43.5029V28.8653H44.5073V27.9957ZM43.5029 27.9957C42.0189 27.9957 40.9621 27.5928 40.2569 26.8524L39.6272 27.452C40.5452 28.416 41.8622 28.8653 43.5029 28.8653V27.9957ZM40.2607 26.8564C39.5683 26.1108 39.1899 25.0047 39.1899 23.4696H38.3203C38.3203 25.1403 38.7332 26.4894 39.6235 27.4481L40.2607 26.8564ZM39.1899 23.4696V18.5696H38.3203V23.4696H39.1899ZM39.1899 18.5696C39.1899 17.0454 39.6028 15.945 40.3676 15.198L39.76 14.576C38.7798 15.5334 38.3203 16.888 38.3203 18.5696H39.1899ZM40.3676 15.198C41.1358 14.4477 42.2506 14.0435 43.7768 14.0435V13.174C42.0974 13.174 40.7368 13.622 39.76 14.576L40.3676 15.198ZM43.7768 14.0435H50.8073V13.174H43.7768V14.0435ZM50.8073 14.0435C50.9684 14.0435 51.0085 14.0823 51.0093 14.083C51.0106 14.0843 51.0171 14.0902 51.0245 14.1116C51.0328 14.1353 51.0421 14.178 51.0421 14.2479H51.9116C51.9116 13.9625 51.8359 13.67 51.6096 13.454C51.3872 13.2417 51.0926 13.174 50.8073 13.174V14.0435ZM51.0421 14.2479V29.2522H51.9116V14.2479H51.0421ZM51.0421 29.2522C51.0421 30.7514 50.6216 31.8414 49.8374 32.5899L50.4379 33.2189C51.4393 32.2631 51.9116 30.9182 51.9116 29.2522H51.0421ZM49.8339 32.5934C49.0648 33.3447 47.9593 33.7479 46.4551 33.7479V34.6174C48.1161 34.6174 49.4657 34.1685 50.4415 33.2154L49.8339 32.5934ZM46.4551 33.7479H40.6116V34.6174H46.4551V33.7479ZM40.6116 33.7479C40.5178 33.7479 40.4574 33.7379 40.4223 33.7275C40.3886 33.7175 40.3895 33.7109 40.4017 33.723L39.7868 34.338C40.0109 34.5621 40.3282 34.6174 40.6116 34.6174V33.7479ZM40.4017 33.723C40.4316 33.753 40.4307 33.772 40.423 33.7434C40.4156 33.7156 40.4073 33.6621 40.4073 33.574H39.5377C39.5377 33.8167 39.575 34.1261 39.7868 34.338L40.4017 33.723ZM40.4073 33.574V31.474H39.5377V33.574H40.4073ZM40.4073 31.474C40.4073 31.4024 40.4164 31.3574 40.4249 31.3319C40.4328 31.3083 40.4395 31.3022 40.4397 31.302C40.4399 31.3019 40.446 31.2951 40.4695 31.2873C40.4951 31.2787 40.5401 31.2696 40.6116 31.2696V30.4C40.3315 30.4 40.0416 30.4704 39.8248 30.6872C39.6081 30.904 39.5377 31.1939 39.5377 31.474H40.4073ZM40.6116 31.2696H45.816V30.4H40.6116V31.2696ZM45.816 31.2696C46.5082 31.2696 47.1169 31.1215 47.5041 30.7046L46.8669 30.1129C46.7266 30.264 46.4222 30.4 45.816 30.4V31.2696ZM47.4814 30.7274C47.8961 30.3422 48.0464 29.7467 48.0464 29.0696H47.1768C47.1768 29.6506 47.0431 29.9477 46.8897 30.0901L47.4814 30.7274ZM48.0464 29.0696V26.7566H47.1768V29.0696H48.0464ZM47.6116 26.3218H47.4899V27.1914H47.6116V26.3218ZM47.0873 26.5926C46.9069 27.0351 46.5898 27.3749 46.1085 27.6155L46.4974 28.3933C47.1523 28.0658 47.6265 27.5737 47.8925 26.9206L47.0873 26.5926ZM46.1085 27.6155C45.6001 27.8697 45.0681 27.9957 44.5073 27.9957V28.8653C45.2044 28.8653 45.8695 28.7072 46.4974 28.3933L46.1085 27.6155ZM48.0464 22.7696V17.2914H47.1768V22.7696H48.0464ZM48.0464 17.2914C48.0464 17.1026 47.9932 16.8839 47.8141 16.7198C47.6422 16.5622 47.4262 16.5218 47.2464 16.5218V17.3914C47.3101 17.3914 47.2767 17.4067 47.2265 17.3607C47.2015 17.3378 47.1869 17.312 47.1802 17.2934C47.1743 17.2774 47.1768 17.274 47.1768 17.2914H48.0464ZM47.2464 16.5218H44.3855V17.3914H47.2464V16.5218ZM44.3855 16.5218C43.6932 16.5218 43.0846 16.6699 42.6974 17.0868L43.3346 17.6785C43.4749 17.5274 43.7793 17.3914 44.3855 17.3914V16.5218ZM42.7085 17.0752C42.3205 17.4633 42.1855 18.0668 42.1855 18.7522H43.0551C43.0551 18.1391 43.1839 17.8296 43.3234 17.6901L42.7085 17.0752ZM42.1855 18.7522V23.287H43.0551V18.7522H42.1855ZM42.1855 23.287C42.1855 23.9724 42.3205 24.576 42.7085 24.964L43.3234 24.3491C43.1839 24.2096 43.0551 23.9001 43.0551 23.287H42.1855ZM42.7085 24.964C43.0966 25.352 43.7001 25.487 44.3855 25.487V24.6174C43.7724 24.6174 43.4629 24.4887 43.3234 24.3491L42.7085 24.964ZM44.3855 25.487H45.5116V24.6174H44.3855V25.487ZM45.5116 25.487C46.2884 25.487 46.9481 25.2742 47.4066 24.776C47.8588 24.2845 48.0464 23.5889 48.0464 22.7696H47.1768C47.1768 23.472 47.0145 23.9178 46.7667 24.1872C46.5251 24.4498 46.1348 24.6174 45.5116 24.6174V25.487ZM65.0067 14.9174L64.6993 15.2249L64.7066 15.232L65.0067 14.9174ZM62.1154 25.4174L61.8196 25.0988L61.8137 25.1043L61.8081 25.11L62.1154 25.4174ZM62.1154 17.3218L61.8081 17.6293L61.8137 17.6349L61.8196 17.6404L62.1154 17.3218ZM61.3241 28.6957H58.6154V29.5653H61.3241V28.6957ZM58.6154 28.6957C57.0892 28.6957 55.9744 28.2915 55.2062 27.5412L54.5986 28.1633C55.5754 29.1173 56.936 29.5653 58.6154 29.5653V28.6957ZM55.2062 27.5412C54.4414 26.7942 54.0285 25.6938 54.0285 24.1696H53.1589C53.1589 25.8513 53.6184 27.2059 54.5986 28.1633L55.2062 27.5412ZM54.0285 24.1696V18.5696H53.1589V24.1696H54.0285ZM54.0285 18.5696C54.0285 17.0454 54.4414 15.945 55.2062 15.198L54.5986 14.576C53.6184 15.5334 53.1589 16.888 53.1589 18.5696H54.0285ZM55.2062 15.198C55.9744 14.4477 57.0892 14.0435 58.6154 14.0435V13.174C56.936 13.174 55.5754 13.622 54.5986 14.576L55.2062 15.198ZM58.6154 14.0435H61.3241V13.174H58.6154V14.0435ZM61.3241 14.0435C62.8256 14.0435 63.9296 14.4553 64.6993 15.2249L65.3142 14.61C64.3388 13.6347 62.988 13.174 61.3241 13.174V14.0435ZM64.7066 15.232C65.4907 15.9805 65.9111 17.0704 65.9111 18.5696H66.7807C66.7807 16.9036 66.3083 15.5587 65.307 14.6029L64.7066 15.232ZM65.9111 18.5696V24.1696H66.7807V18.5696H65.9111ZM65.9111 24.1696C65.9111 25.6682 65.4909 26.7712 64.7028 27.5413L65.3106 28.1633C66.3081 27.1885 66.7807 25.8362 66.7807 24.1696H65.9111ZM64.7028 27.5413C63.9337 28.2926 62.8283 28.6957 61.3241 28.6957V29.5653C62.9852 29.5653 64.3348 29.1163 65.3106 28.1633L64.7028 27.5413ZM59.1937 26.2479H60.7459V25.3783H59.1937V26.2479ZM60.7459 26.2479C61.4313 26.2479 62.0349 26.1129 62.4229 25.7249L61.8081 25.11C61.6685 25.2495 61.359 25.3783 60.7459 25.3783V26.2479ZM62.4113 25.736C62.8282 25.3488 62.9763 24.7402 62.9763 24.0479H62.1067C62.1067 24.6541 61.9707 24.9585 61.8196 25.0988L62.4113 25.736ZM62.9763 24.0479V18.6914H62.1067V24.0479H62.9763ZM62.9763 18.6914C62.9763 17.999 62.8282 17.3904 62.4113 17.0032L61.8196 17.6404C61.9707 17.7807 62.1067 18.0851 62.1067 18.6914H62.9763ZM62.4229 17.0143C62.0349 16.6263 61.4313 16.4914 60.7459 16.4914V17.3609C61.359 17.3609 61.6685 17.4897 61.8081 17.6293L62.4229 17.0143ZM60.7459 16.4914H59.1937V17.3609H60.7459V16.4914ZM59.1937 16.4914C58.5083 16.4914 57.9048 16.6263 57.5168 17.0143L58.1316 17.6293C58.2711 17.4897 58.5806 17.3609 59.1937 17.3609V16.4914ZM57.5168 17.0143C57.1287 17.4024 56.9937 18.006 56.9937 18.6914H57.8633C57.8633 18.0782 57.9921 17.7687 58.1316 17.6293L57.5168 17.0143ZM56.9937 18.6914V24.0479H57.8633V18.6914H56.9937ZM56.9937 24.0479C56.9937 24.7333 57.1287 25.3368 57.5168 25.7249L58.1316 25.11C57.9921 24.9705 57.8633 24.661 57.8633 24.0479H56.9937ZM57.5168 25.7249C57.9048 26.1129 58.5083 26.2479 59.1937 26.2479V25.3783C58.5806 25.3783 58.2711 25.2495 58.1316 25.11L57.5168 25.7249Z" fill="#0F2440"/>
<path d="M14.087 30.8695H2.43481C1.95456 30.8695 1.56525 31.2588 1.56525 31.7391V33.6521C1.56525 34.1324 1.95456 34.5217 2.43481 34.5217H14.087C14.5672 34.5217 14.9566 34.1324 14.9566 33.6521V31.7391C14.9566 31.2588 14.5672 30.8695 14.087 30.8695Z" fill="#00897B"/>
</svg>
