<svg width="10" height="10" viewBox="0 0 10 10" fill="none" xmlns="http://www.w3.org/2000/svg">
<mask id="mask0_7909_331" style="mask-type:alpha" maskUnits="userSpaceOnUse" x="0" y="0" width="10" height="10">
<rect width="10" height="10" transform="matrix(-1 0 0 1 10 0)" fill="#00897B"/>
</mask>
<g mask="url(#mask0_7909_331)">
<path d="M6.36905 5.03565L3.23041 8.1743C3.14763 8.25708 3.10728 8.35454 3.10936 8.46669C3.11152 8.57892 3.15398 8.67642 3.23676 8.75919C3.31961 8.84197 3.41711 8.88336 3.52926 8.88336C3.64141 8.88336 3.73891 8.84197 3.82176 8.75919L7.01801 5.5693C7.09336 5.49395 7.14919 5.40954 7.18551 5.31607C7.22183 5.2226 7.23999 5.12912 7.23999 5.03565C7.23999 4.94218 7.22183 4.84871 7.18551 4.75523C7.14919 4.66176 7.09336 4.57735 7.01801 4.50201L3.82176 1.30565C3.73891 1.22287 3.64034 1.18256 3.52603 1.18471C3.41173 1.18687 3.31318 1.22933 3.23041 1.31211C3.14763 1.39489 3.10624 1.49239 3.10624 1.60461C3.10624 1.71676 3.14763 1.81423 3.23041 1.89701L6.36905 5.03565Z" fill="#00897B" stroke="#00897B" stroke-width="0.5"/>
</g>
</svg>
