<svg width="32" height="32" viewBox="0 0 32 32" fill="none" xmlns="http://www.w3.org/2000/svg">
<mask id="mask0_7909_305" style="mask-type:alpha" maskUnits="userSpaceOnUse" x="0" y="0" width="32" height="32">
<rect width="32" height="32" fill="#D9D9D9"/>
</mask>
<g mask="url(#mask0_7909_305)">
<path d="M15.9995 17.418L11.6711 21.746C11.478 21.9393 11.2439 22.0338 10.9688 22.0293C10.6935 22.0251 10.4592 21.9264 10.2661 21.7333C10.073 21.5402 9.97645 21.3039 9.97645 21.0243C9.97645 20.7448 10.073 20.5084 10.2661 20.3153L14.5815 16L10.2535 11.705C10.0601 11.5119 9.96568 11.2755 9.97012 10.996C9.97434 10.7166 10.073 10.4804 10.2661 10.2873C10.4592 10.094 10.6956 9.99731 10.9751 9.99731C11.2547 9.99731 11.491 10.094 11.6841 10.2873L15.9995 14.6153L20.2945 10.2873C20.4876 10.094 20.7217 9.99731 20.9968 9.99731C21.2721 9.99731 21.5063 10.094 21.6995 10.2873C21.9063 10.494 22.0098 10.7336 22.0098 11.0063C22.0098 11.279 21.9063 11.5119 21.6995 11.705L17.3841 16L21.7121 20.3283C21.9055 20.5214 22.0021 20.7555 22.0021 21.0307C22.0021 21.306 21.9055 21.5402 21.7121 21.7333C21.5055 21.9402 21.2658 22.0436 20.9931 22.0436C20.7205 22.0436 20.4876 21.9402 20.2945 21.7333L15.9995 17.418Z" fill="#626262"/>
</g>
</svg>
