<svg width="17" height="20" viewBox="0 0 17 20" fill="none" xmlns="http://www.w3.org/2000/svg">
<path d="M5.8214 16.2162C5.26735 16.2162 4.79839 16.027 4.41452 15.6486C4.03065 15.2703 3.83871 14.808 3.83871 14.2619V1.95432C3.83871 1.4082 4.03065 0.945946 4.41452 0.567568C4.79839 0.189189 5.26735 0 5.8214 0H15.0173C15.5714 0 16.0403 0.189189 16.4242 0.567568C16.8081 0.945946 17 1.4082 17 1.95432V14.2619C17 14.808 16.8081 15.2703 16.4242 15.6486C16.0403 16.027 15.5714 16.2162 15.0173 16.2162H5.8214ZM5.8214 14.5946H15.0173C15.1018 14.5946 15.1791 14.5599 15.2493 14.4905C15.3197 14.4214 15.3548 14.3451 15.3548 14.2619V1.95432C15.3548 1.87108 15.3197 1.79486 15.2493 1.72567C15.1791 1.65631 15.1018 1.62162 15.0173 1.62162H5.8214C5.73695 1.62162 5.65963 1.65631 5.58944 1.72567C5.51906 1.79486 5.48387 1.87108 5.48387 1.95432V14.2619C5.48387 14.3451 5.51906 14.4214 5.58944 14.4905C5.65963 14.5599 5.73695 14.5946 5.8214 14.5946ZM1.98269 20C1.42864 20 0.959677 19.8108 0.575806 19.4324C0.191936 19.0541 0 18.5918 0 18.0457V4.9273C0 4.69721 0.0787848 4.5045 0.236355 4.34919C0.393742 4.19405 0.589151 4.11649 0.822581 4.11649C1.05601 4.11649 1.25151 4.19405 1.40908 4.34919C1.56647 4.5045 1.64516 4.69721 1.64516 4.9273V18.0457C1.64516 18.1289 1.68035 18.2051 1.75073 18.2743C1.82092 18.3437 1.89824 18.3784 1.98269 18.3784H12.0012C12.2346 18.3784 12.4301 18.4559 12.5877 18.6111C12.7451 18.7664 12.8238 18.9591 12.8238 19.1892C12.8238 19.4193 12.7451 19.6119 12.5877 19.767C12.4301 19.9223 12.2346 20 12.0012 20H1.98269Z" fill="#A0A0A0"/>
</svg>
