<svg width="40" height="40" viewBox="0 0 40 40" fill="none" xmlns="http://www.w3.org/2000/svg">
<rect width="40" height="40" rx="4" fill="white"/>
<path d="M17.872 22.36H20.488C21 22.36 21.36 22.256 21.568 22.048C21.792 21.824 21.904 21.456 21.904 20.944V13.624C21.904 13.112 21.792 12.752 21.568 12.544C21.36 12.32 21 12.208 20.488 12.208H17.872C17.696 12.208 17.608 12.296 17.608 12.472V22.096C17.608 22.272 17.696 22.36 17.872 22.36ZM14.56 24.496V10.072C14.56 9.736 14.728 9.568 15.064 9.568H20.992C22.24 9.568 23.208 9.912 23.896 10.6C24.6 11.272 24.952 12.232 24.952 13.48V21.088C24.952 22.336 24.6 23.304 23.896 23.992C23.208 24.664 22.24 25 20.992 25H15.064C14.728 25 14.56 24.832 14.56 24.496Z" fill="#0F2440"/>
<path d="M24.2857 27H14.7143C14.3198 27 14 27.4264 14 27.9524V30.0476C14 30.5736 14.3198 31 14.7143 31H24.2857C24.6802 31 25 30.5736 25 30.0476V27.9524C25 27.4264 24.6802 27 24.2857 27Z" fill="#00897B"/>
</svg>
