<svg width="21" height="20" viewBox="0 0 21 20" fill="none" xmlns="http://www.w3.org/2000/svg">
<mask id="mask0_4328_52896" style="mask-type:alpha" maskUnits="userSpaceOnUse" x="0" y="0" width="21" height="20">
<rect x="0.214355" width="20" height="20" fill="#D9D9D9"/>
</mask>
<g mask="url(#mask0_4328_52896)">
<path d="M4.38102 17.5C3.92269 17.5 3.53033 17.3368 3.20394 17.0104C2.87755 16.684 2.71436 16.2917 2.71436 15.8333V4.16667C2.71436 3.70833 2.87755 3.31597 3.20394 2.98958C3.53033 2.66319 3.92269 2.5 4.38102 2.5H16.0477C16.506 2.5 16.8984 2.66319 17.2248 2.98958C17.5512 3.31597 17.7144 3.70833 17.7144 4.16667V15.8333C17.7144 16.2917 17.5512 16.684 17.2248 17.0104C16.8984 17.3368 16.506 17.5 16.0477 17.5H4.38102ZM4.38102 6.9375H16.0477V4.16667H4.38102V6.9375ZM4.38102 11.3958H16.0477V8.60417H4.38102V11.3958ZM4.38102 15.8333H16.0477V13.0625H4.38102V15.8333ZM5.21436 6.375V4.70833H6.88102V6.375H5.21436ZM5.21436 10.8333V9.16667H6.88102V10.8333H5.21436ZM5.21436 15.2917V13.625H6.88102V15.2917H5.21436Z" fill="#0F2440" fill-opacity="0.57"/>
</g>
</svg>
