<svg width="10" height="16" viewBox="0 0 10 16" fill="none" xmlns="http://www.w3.org/2000/svg">
<path d="M1.81818 3.55556C2.30039 3.55556 2.76286 3.36825 3.10383 3.03486C3.44481 2.70146 3.63636 2.24927 3.63636 1.77778C3.63636 1.30628 3.44481 0.854097 3.10383 0.520699C2.76286 0.187301 2.30039 0 1.81818 0C1.33597 0 0.873508 0.187301 0.532533 0.520699C0.191558 0.854097 0 1.30628 0 1.77778C0 2.24927 0.191558 2.70146 0.532533 3.03486C0.873508 3.36825 1.33597 3.55556 1.81818 3.55556ZM1.81818 9.77778C2.30039 9.77778 2.76286 9.59048 3.10383 9.25708C3.44481 8.92368 3.63636 8.4715 3.63636 8C3.63636 7.5285 3.44481 7.07632 3.10383 6.74292C2.76286 6.40952 2.30039 6.22222 1.81818 6.22222C1.33597 6.22222 0.873508 6.40952 0.532533 6.74292C0.191558 7.07632 0 7.5285 0 8C0 8.4715 0.191558 8.92368 0.532533 9.25708C0.873508 9.59048 1.33597 9.77778 1.81818 9.77778ZM3.63636 14.2222C3.63636 14.6937 3.44481 15.1459 3.10383 15.4793C2.76286 15.8127 2.30039 16 1.81818 16C1.33597 16 0.873508 15.8127 0.532533 15.4793C0.191558 15.1459 0 14.6937 0 14.2222C0 13.7507 0.191558 13.2985 0.532533 12.9651C0.873508 12.6317 1.33597 12.4444 1.81818 12.4444C2.30039 12.4444 2.76286 12.6317 3.10383 12.9651C3.44481 13.2985 3.63636 13.7507 3.63636 14.2222ZM8.18182 3.55556C8.66403 3.55556 9.12649 3.36825 9.46747 3.03486C9.80844 2.70146 10 2.24927 10 1.77778C10 1.30628 9.80844 0.854097 9.46747 0.520699C9.12649 0.187301 8.66403 0 8.18182 0C7.69961 0 7.23715 0.187301 6.89617 0.520699C6.55519 0.854097 6.36364 1.30628 6.36364 1.77778C6.36364 2.24927 6.55519 2.70146 6.89617 3.03486C7.23715 3.36825 7.69961 3.55556 8.18182 3.55556ZM10 8C10 8.4715 9.80844 8.92368 9.46747 9.25708C9.12649 9.59048 8.66403 9.77778 8.18182 9.77778C7.69961 9.77778 7.23715 9.59048 6.89617 9.25708C6.55519 8.92368 6.36364 8.4715 6.36364 8C6.36364 7.5285 6.55519 7.07632 6.89617 6.74292C7.23715 6.40952 7.69961 6.22222 8.18182 6.22222C8.66403 6.22222 9.12649 6.40952 9.46747 6.74292C9.80844 7.07632 10 7.5285 10 8ZM8.18182 16C8.66403 16 9.12649 15.8127 9.46747 15.4793C9.80844 15.1459 10 14.6937 10 14.2222C10 13.7507 9.80844 13.2985 9.46747 12.9651C9.12649 12.6317 8.66403 12.4444 8.18182 12.4444C7.69961 12.4444 7.23715 12.6317 6.89617 12.9651C6.55519 13.2985 6.36364 13.7507 6.36364 14.2222C6.36364 14.6937 6.55519 15.1459 6.89617 15.4793C7.23715 15.8127 7.69961 16 8.18182 16Z" fill="#758397"/>
</svg>
