<svg width="12" height="12" viewBox="0 0 12 12" fill="none" xmlns="http://www.w3.org/2000/svg">
<g clip-path="url(#clip0_933_8957)">
<path d="M5.5 2H2C1.73478 2 1.48043 2.10536 1.29289 2.29289C1.10536 2.48043 1 2.73478 1 3V10C1 10.2652 1.10536 10.5196 1.29289 10.7071C1.48043 10.8946 1.73478 11 2 11H9C9.26522 11 9.51957 10.8946 9.70711 10.7071C9.89464 10.5196 10 10.2652 10 10V6.5" stroke="#7D8998" stroke-linecap="round" stroke-linejoin="round"/>
<path d="M9.25 1.25011C9.44891 1.0512 9.7187 0.939453 10 0.939453C10.2813 0.939453 10.5511 1.0512 10.75 1.25011C10.9489 1.44903 11.0607 1.71881 11.0607 2.00011C11.0607 2.28142 10.9489 2.5512 10.75 2.75011L6 7.50011L4 8.00011L4.5 6.00011L9.25 1.25011Z" stroke="#7D8998" stroke-linecap="round" stroke-linejoin="round"/>
</g>
<defs>
<clipPath id="clip0_933_8957">
<rect width="12" height="12" fill="white"/>
</clipPath>
</defs>
</svg>
