<svg width="300" height="300" viewBox="0 7 30 30" fill="none" xmlns="http://www.w3.org/2000/svg">

<path d="M12.2341 18.2791H2.18458C0.978059 18.2791 -1.52588e-05 19.2248 -1.52588e-05 20.3914C-1.52588e-05 21.5579 0.978059 22.5036 2.18458 22.5036H12.2341C13.4406 22.5036 14.4187 21.5579 14.4187 20.3914C14.4187 19.2248 13.4406 18.2791 12.2341 18.2791Z" fill="#F2386C"/>
<path d="M20.0593 11.5203H10.0098C8.80325 11.5203 7.82518 12.466 7.82518 13.6326C7.82518 14.7991 8.80325 15.7448 10.0098 15.7448H20.0593C21.2658 15.7448 22.2439 14.7991 22.2439 13.6326C22.2439 12.466 21.2658 11.5203 20.0593 11.5203Z" fill="#F2386C"/>
<path d="M17.4825 25.0383H7.43301C6.22649 25.0383 5.24841 25.984 5.24841 27.1505C5.24841 28.3171 6.22649 29.2627 7.43301 29.2627H17.4825C18.689 29.2627 19.6671 28.3171 19.6671 27.1505C19.6671 25.984 18.689 25.0383 17.4825 25.0383Z" fill="#F2386C"/>
</svg>