<svg width="46" height="46" viewBox="0 0 46 46" fill="none" xmlns="http://www.w3.org/2000/svg">
<rect width="46" height="46" rx="6" fill="#369B44" fill-opacity="0.87"/>
<path d="M22.2917 32.75L21.125 31.5625L22.6458 30.0417H19.8542C19.6736 30.5278 19.3715 30.9271 18.9479 31.2396C18.5243 31.5521 18.0417 31.7083 17.5 31.7083C16.8056 31.7083 16.2153 31.4653 15.7292 30.9792C15.2431 30.4931 15 29.9028 15 29.2083C15 28.6667 15.1562 28.184 15.4687 27.7604C15.7812 27.3368 16.1806 27.0347 16.6667 26.8542V19.8958C16.1806 19.7153 15.7812 19.4132 15.4687 18.9896C15.1562 18.566 15 18.0833 15 17.5417C15 16.8472 15.2431 16.2569 15.7292 15.7708C16.2153 15.2847 16.8056 15.0417 17.5 15.0417C18.0417 15.0417 18.5243 15.1979 18.9479 15.5104C19.3715 15.8229 19.6736 16.2222 19.8542 16.7083H22.6458L21.125 15.1875L22.2917 14L25.8333 17.5417L22.2917 21.0833L21.125 19.8958L22.6458 18.375H19.8542C19.7292 18.7361 19.5347 19.0486 19.2708 19.3125C19.0069 19.5764 18.6944 19.7708 18.3333 19.8958V26.8542C18.6944 26.9792 19.0069 27.1736 19.2708 27.4375C19.5347 27.7014 19.7292 28.0139 19.8542 28.375H22.6458L21.125 26.8542L22.2917 25.6667L25.8333 29.2083L22.2917 32.75ZM29.1667 31.7083C28.4722 31.7083 27.8819 31.4653 27.3958 30.9792C26.9097 30.4931 26.6667 29.9028 26.6667 29.2083C26.6667 28.6528 26.8229 28.1632 27.1354 27.7396C27.4479 27.316 27.8472 27.0208 28.3333 26.8542V19.8958C27.8472 19.7292 27.4479 19.434 27.1354 19.0104C26.8229 18.5868 26.6667 18.0972 26.6667 17.5417C26.6667 16.8472 26.9097 16.2569 27.3958 15.7708C27.8819 15.2847 28.4722 15.0417 29.1667 15.0417C29.8611 15.0417 30.4514 15.2847 30.9375 15.7708C31.4236 16.2569 31.6667 16.8472 31.6667 17.5417C31.6667 18.0972 31.5104 18.5868 31.1979 19.0104C30.8854 19.434 30.4861 19.7292 30 19.8958V26.8542C30.4861 27.0347 30.8854 27.3368 31.1979 27.7604C31.5104 28.184 31.6667 28.6667 31.6667 29.2083C31.6667 29.9028 31.4236 30.4931 30.9375 30.9792C30.4514 31.4653 29.8611 31.7083 29.1667 31.7083ZM17.5 30.0417C17.7361 30.0417 17.934 29.9618 18.0937 29.8021C18.2535 29.6424 18.3333 29.4444 18.3333 29.2083C18.3333 28.9722 18.2535 28.7743 18.0937 28.6146C17.934 28.4549 17.7361 28.375 17.5 28.375C17.2639 28.375 17.066 28.4549 16.9062 28.6146C16.7465 28.7743 16.6667 28.9722 16.6667 29.2083C16.6667 29.4444 16.7465 29.6424 16.9062 29.8021C17.066 29.9618 17.2639 30.0417 17.5 30.0417ZM29.1667 30.0417C29.4028 30.0417 29.6007 29.9618 29.7604 29.8021C29.9201 29.6424 30 29.4444 30 29.2083C30 28.9722 29.9201 28.7743 29.7604 28.6146C29.6007 28.4549 29.4028 28.375 29.1667 28.375C28.9306 28.375 28.7326 28.4549 28.5729 28.6146C28.4132 28.7743 28.3333 28.9722 28.3333 29.2083C28.3333 29.4444 28.4132 29.6424 28.5729 29.8021C28.7326 29.9618 28.9306 30.0417 29.1667 30.0417ZM17.5 18.375C17.7361 18.375 17.934 18.2951 18.0937 18.1354C18.2535 17.9757 18.3333 17.7778 18.3333 17.5417C18.3333 17.3056 18.2535 17.1076 18.0937 16.9479C17.934 16.7882 17.7361 16.7083 17.5 16.7083C17.2639 16.7083 17.066 16.7882 16.9062 16.9479C16.7465 17.1076 16.6667 17.3056 16.6667 17.5417C16.6667 17.7778 16.7465 17.9757 16.9062 18.1354C17.066 18.2951 17.2639 18.375 17.5 18.375ZM29.1667 18.375C29.4028 18.375 29.6007 18.2951 29.7604 18.1354C29.9201 17.9757 30 17.7778 30 17.5417C30 17.3056 29.9201 17.1076 29.7604 16.9479C29.6007 16.7882 29.4028 16.7083 29.1667 16.7083C28.9306 16.7083 28.7326 16.7882 28.5729 16.9479C28.4132 17.1076 28.3333 17.3056 28.3333 17.5417C28.3333 17.7778 28.4132 17.9757 28.5729 18.1354C28.7326 18.2951 28.9306 18.375 29.1667 18.375Z" fill="white"/>
</svg>
