<svg width="16" height="16" viewBox="0 0 16 16" fill="none" xmlns="http://www.w3.org/2000/svg">
<mask id="mask0_7610_741" style="mask-type:alpha" maskUnits="userSpaceOnUse" x="0" y="0" width="16" height="16">
<rect width="16" height="16" fill="#D9D9D9"/>
</mask>
<g mask="url(#mask0_7610_741)">
<path d="M7.4001 11.6H8.6001V7.6H7.4001V11.6ZM7.99658 6.4C8.16559 6.4 8.30843 6.34284 8.4251 6.22852C8.54176 6.11418 8.6001 5.97252 8.6001 5.80352C8.6001 5.63451 8.54294 5.49167 8.42861 5.375C8.31428 5.25833 8.17261 5.2 8.00361 5.2C7.8346 5.2 7.69176 5.25716 7.5751 5.37148C7.45843 5.48582 7.4001 5.62748 7.4001 5.79648C7.4001 5.96549 7.45726 6.10833 7.57158 6.225C7.68591 6.34167 7.82758 6.4 7.99658 6.4ZM8.0047 14.8C7.12385 14.8 6.29454 14.6333 5.51676 14.3C4.73899 13.9667 4.05843 13.5083 3.4751 12.925C2.89176 12.3417 2.43343 11.6613 2.1001 10.884C1.76676 10.1067 1.6001 9.27615 1.6001 8.39237C1.6001 7.50857 1.76676 6.68056 2.1001 5.90833C2.43343 5.13611 2.89176 4.45833 3.4751 3.875C4.05843 3.29167 4.73875 2.83333 5.51606 2.5C6.29339 2.16667 7.12394 2 8.00773 2C8.89153 2 9.71954 2.16667 10.4918 2.5C11.264 2.83333 11.9418 3.29167 12.5251 3.875C13.1084 4.45833 13.5668 5.13736 13.9001 5.91207C14.2334 6.68679 14.4001 7.51457 14.4001 8.3954C14.4001 9.27624 14.2334 10.1056 13.9001 10.8833C13.5668 11.6611 13.1084 12.3417 12.5251 12.925C11.9418 13.5083 11.2627 13.9667 10.488 14.3C9.71331 14.6333 8.88553 14.8 8.0047 14.8ZM8.0001 13.6C9.44454 13.6 10.6723 13.0944 11.6834 12.0833C12.6945 11.0722 13.2001 9.84444 13.2001 8.4C13.2001 6.95556 12.6945 5.72778 11.6834 4.71667C10.6723 3.70556 9.44454 3.2 8.0001 3.2C6.55565 3.2 5.32788 3.70556 4.31676 4.71667C3.30565 5.72778 2.8001 6.95556 2.8001 8.4C2.8001 9.84444 3.30565 11.0722 4.31676 12.0833C5.32788 13.0944 6.55565 13.6 8.0001 13.6Z" fill="#BDBDBD"/>
</g>
</svg>
