<svg xmlns="http://www.w3.org/2000/svg" viewBox="0 0 48 60" x="0px" y="0px">
<g>
<path d="M11.29,14.71a1,1,0,0,1,0-1.42l2-2a1,1,0,0,1,1.42,1.42l-2,2a1,1,0,0,1-1.42,0ZM9.71,11.29a1,1,0,0,0-1.42,0l-2,2a1,1,0,0,0,0,1.42,1,1,0,0,0,1.42,0l2-2A1,1,0,0,0,9.71,11.29ZM46,24V39a1,1,0,0,1-1,1H39a1,1,0,0,1-1-1V24a4,4,0,0,1,8,0Zm-2,0a2,2,0,0,0-4,0V38h4Zm-6-9a4,4,0,1,1,4,4A4,4,0,0,1,38,15Zm2,0a2,2,0,1,0,2-2A2,2,0,0,0,40,15Zm-3,9V39a1,1,0,0,1-1,1H30a1,1,0,0,1-1-1V24a4,4,0,0,1,8,0Zm-2,0a2,2,0,0,0-4,0V38h4Zm2-9a4,4,0,1,1-4-4A4,4,0,0,1,37,15Zm-2,0a2,2,0,1,0-2,2A2,2,0,0,0,35,15Zm-7,9V39a1,1,0,0,1-1,1H3a1,1,0,0,1,0-2V28a1,1,0,0,1,0-2H9V18H4a1,1,0,0,1-1-1V9A1,1,0,0,1,4,8H17a1,1,0,0,1,1,1v8a1,1,0,0,1-1,1H11v8h9V24a4,4,0,0,1,8,0ZM5,16H16V10H5ZM5,28v6H20V28ZM5,38H20V36H5ZM26,24a2,2,0,0,0-4,0V38h4Zm2-9a4,4,0,1,1-4-4A4,4,0,0,1,28,15Zm-2,0a2,2,0,1,0-2,2A2,2,0,0,0,26,15Z"/>
</g>
</svg>