
<svg width="160" height="160" viewBox="0 0 160 160" fill="none" xmlns="http://www.w3.org/2000/svg">
   <circle cx="80" cy="80" r="80" fill="#00897B" fill-opacity="0.12" />
   <path d="M120.5 98V62C120.5 49.4 110.6 39.5 98 39.5H62C55.7 39.5 50.3 42.2 46.25 46.25C42.2 50.3 39.5 55.7 39.5 62V98C39.5 110.6 49.4 120.5 62 120.5H98C104.3 120.5 109.7 117.8 113.75 113.75C117.8 109.7 120.5 104.3 120.5 98Z" fill="#00897B" />
   <path d="M68.3 69.1993C66.5 69.1993 65.15 70.0993 64.25 71.4493C62.9 73.6993 63.8 76.3993 66.05 77.7493L89.9 90.7993C92.15 92.1493 94.85 91.2493 96.2 88.9993C97.55 86.7493 96.65 84.0493 94.4 82.6993L70.55 69.6493C69.65 69.1993 68.75 69.1993 68.3 69.1993Z" fill="white" />
   <path d="M90.7999 67.3994C89.8999 67.3994 88.9999 67.8494 88.0999 68.2994L66.4999 84.4994C64.6999 85.8494 64.2499 88.9994 65.5999 90.7994C66.9499 92.5994 69.6499 93.0494 71.8999 91.6994L93.4999 75.4994C95.2999 74.1494 95.7499 70.9994 94.3999 69.1994C93.4999 68.2994 92.1499 67.3994 90.7999 67.3994Z" fill="white" />
   <path d="M80 62C77.3 62 75.5 63.8 75.5 66.5V93.5C75.5 96.2 77.3 98 80 98C82.7 98 84.5 96.2 84.5 93.5V66.5C84.5 63.8 82.7 62 80 62Z" fill="white" />
   <path opacity="0.1" d="M120.5 98V62C120.5 49.4 110.6 39.5 98 39.5H62C55.7 39.5 50.3 42.2 46.25 46.25L69.2 69.2L75.5 75.5L76.85 76.85L83.15 83.15L84.5 84.5L90.8 90.8L113.75 113.75C117.8 109.7 120.5 104.3 120.5 98Z" fill="black" />
</svg>
