<svg width="24" height="24" viewBox="0 0 24 24" fill="none" xmlns="http://www.w3.org/2000/svg">
<rect x="0.5" y="0.5" width="23" height="23" rx="2.5" fill="white"/>
<rect x="0.5" y="0.5" width="23" height="23" rx="2.5" stroke="#00897B"/>
<g clip-path="url(#clip0_6476_3310)">
<path d="M14.5 10.75C14.0858 10.75 13.75 10.4142 13.75 10C13.75 9.58579 14.0858 9.25 14.5 9.25H17C17.4142 9.25 17.75 9.58579 17.75 10V12.5C17.75 12.9142 17.4142 13.25 17 13.25C16.5858 13.25 16.25 12.9142 16.25 12.5V11.8107L14.2374 13.8232C13.554 14.5066 12.446 14.5066 11.7626 13.8232L10.1768 12.2374C10.0791 12.1398 9.92085 12.1398 9.82322 12.2374L7.53033 14.5303C7.23744 14.8232 6.76256 14.8232 6.46967 14.5303C6.17678 14.2374 6.17678 13.7626 6.46967 13.4697L8.76256 11.1768C9.44598 10.4934 10.554 10.4934 11.2374 11.1768L12.8232 12.7626C12.9209 12.8602 13.0791 12.8602 13.1768 12.7626L15.1893 10.75H14.5Z" fill="#00897B"/>
</g>
<defs>
<clipPath id="clip0_6476_3310">
<rect width="24" height="24" fill="white"/>
</clipPath>
</defs>
</svg>
