<svg width="20" height="20" viewBox="0 0 20 20" fill="none" xmlns="http://www.w3.org/2000/svg">
<path d="M3.47921 16.6663V15.4163H6.18754L5.87504 15.1663C4.98615 14.458 4.34032 13.6872 3.93754 12.8538C3.53476 12.0205 3.33337 11.09 3.33337 10.0622C3.33337 8.58995 3.7674 7.26704 4.63546 6.09343C5.50351 4.91981 6.64587 4.11079 8.06254 3.66634V4.95801C7.02087 5.36079 6.1806 6.03093 5.54171 6.96843C4.90282 7.90593 4.58337 8.93717 4.58337 10.0622C4.58337 10.9372 4.74657 11.6976 5.07296 12.3434C5.39935 12.9893 5.84032 13.5483 6.39587 14.0205L7.02087 14.458V11.8747H8.27087V16.6663H3.47921ZM11.9584 16.3538V15.0413C13.0139 14.6386 13.8542 13.9684 14.4792 13.0309C15.1042 12.0934 15.4167 11.0622 15.4167 9.93718C15.4167 9.27051 15.2535 8.59343 14.9271 7.90593C14.6007 7.21843 14.1737 6.61079 13.6459 6.08301L13.0417 5.54134V8.12468H11.7917V3.33301H16.5834V4.58301H13.8542L14.1667 4.87467C15 5.65245 15.625 6.48579 16.0417 7.37468C16.4584 8.26356 16.6667 9.11773 16.6667 9.93718C16.6667 11.4094 16.2362 12.7358 15.375 13.9163C14.5139 15.0969 13.375 15.9094 11.9584 16.3538Z" fill="white"/>
</svg>
