<svg width="22" height="18" viewBox="0 0 22 18" fill="none" xmlns="http://www.w3.org/2000/svg">
<path d="M2.56092 11.0579C2.18002 11.0579 1.82468 10.8929 1.4949 10.563C1.16497 10.2332 1 9.87789 1 9.49699V8.48703C1 8.36891 1.00906 8.25969 1.02719 8.15936C1.04515 8.0592 1.0784 7.96673 1.12694 7.88194L3.88519 1.38922C4.02419 1.06252 4.28568 0.808313 4.66966 0.626598C5.05364 0.444883 5.42354 0.354027 5.77937 0.354027L16.0374 0.378298V11.0579L10.5352 16.5601C10.2774 16.8177 9.98924 16.9895 9.67063 17.0754C9.35202 17.1613 9.07233 17.134 8.83155 16.9933C8.59062 16.8526 8.44434 16.6151 8.39272 16.281C8.3411 15.9468 8.35445 15.5762 8.43277 15.1691L9.21141 11.0579H2.56092ZM14.7752 10.5351V1.64043H5.43617C5.36772 1.64043 5.29773 1.65912 5.22621 1.6965C5.15453 1.73388 5.1 1.7961 5.06262 1.88315L2.26214 8.41228V9.49699C2.26214 9.5842 2.29013 9.65581 2.34612 9.71179C2.40211 9.76778 2.47371 9.79577 2.56092 9.79577H10.7124L9.6165 15.6509L14.7752 10.5351ZM19.4391 0.378298C19.8894 0.378298 20.2621 0.531128 20.5573 0.836792C20.8524 1.14246 21 1.50993 21 1.93922V9.49699C21 9.92627 20.8524 10.2937 20.5573 10.5994C20.2621 10.9051 19.8894 11.0579 19.4391 11.0579H16.0374V9.79577H19.4391C19.5263 9.79577 19.5979 9.76778 19.6539 9.71179C19.7099 9.65581 19.7379 9.5842 19.7379 9.49699V1.93922C19.7379 1.852 19.7099 1.7804 19.6539 1.72441C19.5979 1.66843 19.5263 1.64043 19.4391 1.64043H16.0374V0.378298H19.4391Z" fill="#A0A0A0"/>
<path d="M16.0374 0.378298L5.77937 0.354027C5.42354 0.354027 5.05364 0.444883 4.66966 0.626598C4.28568 0.808314 4.02419 1.06252 3.88519 1.38922L1.12694 7.88194C1.0784 7.96673 1.04515 8.0592 1.02719 8.15936C1.00906 8.25969 1 8.36891 1 8.48703V9.49699C1 9.87789 1.16497 10.2332 1.4949 10.563C1.82468 10.8929 2.18002 11.0579 2.56092 11.0579H9.21141L8.43277 15.1691C8.35445 15.5762 8.3411 15.9468 8.39272 16.281C8.44434 16.6151 8.59061 16.8526 8.83155 16.9933C9.07233 17.134 9.35202 17.1613 9.67063 17.0754C9.98924 16.9895 10.2774 16.8177 10.5352 16.5601L16.0374 11.0579M16.0374 0.378298V11.0579M16.0374 0.378298V1.64043H19.4391C19.5263 1.64043 19.5979 1.66843 19.6539 1.72441C19.7099 1.7804 19.7379 1.852 19.7379 1.93922V9.49699C19.7379 9.5842 19.7099 9.6558 19.6539 9.71179C19.5979 9.76778 19.5263 9.79577 19.4391 9.79577H16.0374V11.0579M16.0374 0.378298H19.4391C19.8894 0.378298 20.2621 0.531129 20.5573 0.836792C20.8524 1.14246 21 1.50993 21 1.93922V9.49699C21 9.92627 20.8524 10.2937 20.5573 10.5994C20.2621 10.9051 19.8894 11.0579 19.4391 11.0579H16.0374M14.7752 10.5351V1.64043H5.43617C5.36772 1.64043 5.29773 1.65912 5.22621 1.6965C5.15453 1.73388 5.1 1.7961 5.06262 1.88315L2.26214 8.41228V9.49699C2.26214 9.5842 2.29013 9.6558 2.34612 9.71179C2.40211 9.76778 2.47371 9.79577 2.56092 9.79577H10.7124L9.6165 15.6509L14.7752 10.5351Z" stroke="#A0A0A0" stroke-width="0.25"/>
</svg>
