<svg width="22" height="18" viewBox="0 0 22 18" fill="none" xmlns="http://www.w3.org/2000/svg">
<path d="M19.4391 7.06636C19.82 7.06636 20.1753 7.23133 20.5051 7.56126C20.835 7.89104 21 8.24638 21 8.62728V9.63723C21 9.75536 20.9909 9.86458 20.9728 9.9649C20.9549 10.0651 20.9216 10.1575 20.8731 10.2423L18.1148 16.735C17.9758 17.0617 17.7143 17.316 17.3303 17.4977C16.9464 17.6794 16.5765 17.7702 16.2206 17.7702L5.96262 17.746V7.06636L11.4648 1.56417C11.7226 1.30657 12.0108 1.13481 12.3294 1.04888C12.648 0.962961 12.9277 0.990308 13.1684 1.13092C13.4094 1.2717 13.5557 1.50916 13.6073 1.8433C13.6589 2.17744 13.6456 2.54807 13.5672 2.95519L12.7886 7.06636H19.4391ZM7.22476 7.58917V16.4838H16.5638C16.6323 16.4838 16.7023 16.4651 16.7738 16.4278C16.8455 16.3904 16.9 16.3282 16.9374 16.2411L19.7379 9.71199V8.62728C19.7379 8.54006 19.7099 8.46846 19.6539 8.41248C19.5979 8.35649 19.5263 8.3285 19.4391 8.3285H11.2876L12.3835 2.4734L7.22476 7.58917ZM2.56092 17.746C2.1106 17.746 1.73786 17.5931 1.44272 17.2875C1.14757 16.9818 1 16.6143 1 16.185V8.62728C1 8.19799 1.14757 7.83052 1.44272 7.52485C1.73786 7.21919 2.1106 7.06636 2.56092 7.06636H5.96262V8.3285H2.56092C2.47371 8.3285 2.4021 8.35649 2.34612 8.41248C2.29013 8.46846 2.26214 8.54006 2.26214 8.62728V16.185C2.26214 16.2723 2.29013 16.3439 2.34612 16.3999C2.4021 16.4558 2.47371 16.4838 2.56092 16.4838H5.96262V17.746H2.56092Z" fill="#A0A0A0"/>
<path d="M5.96262 17.746L16.2206 17.7702C16.5765 17.7702 16.9464 17.6794 17.3303 17.4977C17.7143 17.316 17.9758 17.0617 18.1148 16.735L20.8731 10.2423C20.9216 10.1575 20.9549 10.0651 20.9728 9.9649C20.9909 9.86458 21 9.75536 21 9.63723V8.62728C21 8.24638 20.835 7.89104 20.5051 7.56126C20.1753 7.23133 19.82 7.06636 19.4391 7.06636H12.7886L13.5672 2.95519C13.6456 2.54807 13.6589 2.17744 13.6073 1.8433C13.5557 1.50916 13.4094 1.2717 13.1684 1.13092C12.9277 0.990308 12.648 0.962961 12.3294 1.04888C12.0108 1.13481 11.7226 1.30657 11.4648 1.56417L5.96262 7.06636M5.96262 17.746V7.06636M5.96262 17.746V16.4838H2.56092C2.47371 16.4838 2.4021 16.4558 2.34612 16.3999C2.29013 16.3439 2.26214 16.2723 2.26214 16.185V8.62728C2.26214 8.54006 2.29013 8.46846 2.34612 8.41248C2.4021 8.35649 2.47371 8.32849 2.56092 8.32849H5.96262V7.06636M5.96262 17.746H2.56092C2.1106 17.746 1.73786 17.5931 1.44272 17.2875C1.14757 16.9818 1 16.6143 1 16.185V8.62728C1 8.19799 1.14757 7.83052 1.44272 7.52485C1.73786 7.21919 2.1106 7.06636 2.56092 7.06636H5.96262M7.22476 7.58917V16.4838H16.5638C16.6323 16.4838 16.7023 16.4651 16.7738 16.4278C16.8455 16.3904 16.9 16.3282 16.9374 16.2411L19.7379 9.71199V8.62728C19.7379 8.54006 19.7099 8.46846 19.6539 8.41248C19.5979 8.35649 19.5263 8.32849 19.4391 8.32849H11.2876L12.3835 2.4734L7.22476 7.58917Z" stroke="#A0A0A0" stroke-width="0.25"/>
</svg>
