<svg width="32" height="32" viewBox="0 0 32 32" fill="none" xmlns="http://www.w3.org/2000/svg">
<rect width="32" height="32" rx="4" fill="white"/>
<path d="M12.4996 19.8448H16.0537C16.7493 19.8448 17.2384 19.7035 17.521 19.4209C17.8253 19.1166 17.9774 18.6167 17.9774 17.9211V7.97624C17.9774 7.28062 17.8253 6.79153 17.521 6.50897C17.2384 6.20462 16.7493 6.05249 16.0537 6.05249H12.4996C12.2605 6.05249 12.141 6.17201 12.141 6.41115V19.4861C12.141 19.7253 12.2605 19.8448 12.4996 19.8448ZM8 22.7467V3.15056C8 2.69408 8.22824 2.46584 8.68473 2.46584H16.7384C18.4339 2.46584 19.7491 2.93322 20.6837 3.86789C21.6402 4.78086 22.1184 6.0851 22.1184 7.78061V18.1167C22.1184 19.8122 21.6402 21.1273 20.6837 22.062C19.7491 22.975 18.4339 23.4315 16.7384 23.4315H8.68473C8.22824 23.4315 8 23.2032 8 22.7467Z" fill="#0F2440"/>
<path d="M17.9868 6.50895L17.6454 6.82588L17.6572 6.83855L17.6698 6.85029L17.9868 6.50895ZM21.1495 3.86787L20.8201 4.19728L20.8279 4.20483L21.1495 3.86787ZM12.9654 20.3106H16.5195V19.379H12.9654V20.3106ZM16.5195 20.3106C17.2538 20.3106 17.9004 20.166 18.3162 19.7503L17.6573 19.0915C17.5079 19.241 17.1764 19.379 16.5195 19.379V20.3106ZM18.3162 19.7503C18.7485 19.3179 18.909 18.6672 18.909 17.921H17.9774C17.9774 18.5661 17.8336 18.9153 17.6573 19.0915L18.3162 19.7503ZM18.909 17.921V7.97622H17.9774V17.921H18.909ZM18.909 7.97622C18.909 7.23448 18.7504 6.58246 18.3037 6.16762L17.6698 6.85029C17.8317 7.00065 17.9774 7.32671 17.9774 7.97622H18.909ZM18.3281 6.19202C17.9133 5.74532 17.2612 5.58667 16.5195 5.58667V6.51827C17.169 6.51827 17.4951 6.66397 17.6454 6.82588L18.3281 6.19202ZM16.5195 5.58667H12.9654V6.51827H16.5195V5.58667ZM12.9654 5.58667C12.7741 5.58667 12.545 5.63483 12.3671 5.81277C12.1891 5.9907 12.141 6.21978 12.141 6.41113H13.0726C13.0726 6.36334 13.0842 6.41309 13.0258 6.4715C12.9674 6.52991 12.9177 6.51827 12.9654 6.51827V5.58667ZM12.141 6.41113V19.4861H13.0726V6.41113H12.141ZM12.141 19.4861C12.141 19.6775 12.1891 19.9066 12.3671 20.0845C12.545 20.2624 12.7741 20.3106 12.9654 20.3106V19.379C12.9177 19.379 12.9674 19.3673 13.0258 19.4258C13.0842 19.4842 13.0726 19.5339 13.0726 19.4861H12.141ZM8.9316 22.7467V3.15054H8V22.7467H8.9316ZM8.9316 3.15054C8.9316 3.07387 8.94134 3.02571 8.95049 2.99832C8.95889 2.97307 8.96635 2.96636 8.96635 2.96636C8.96635 2.96636 8.97308 2.95891 8.99826 2.95053C9.02568 2.9414 9.07383 2.93161 9.15053 2.93161V2.00002C8.85049 2.00002 8.5399 2.07538 8.30761 2.30763C8.07533 2.53988 8 2.85047 8 3.15054H8.9316ZM9.15053 2.93161H17.2042V2.00002H9.15053V2.93161ZM17.2042 2.93161C18.8127 2.93161 19.9957 3.37273 20.8201 4.19728L21.479 3.53846C20.434 2.49358 18.9867 2.00002 17.2042 2.00002V2.93161ZM20.8279 4.20483C21.6681 5.00675 22.1184 6.17442 22.1184 7.78059H23.05C23.05 5.99574 22.544 4.55492 21.4711 3.53091L20.8279 4.20483ZM22.1184 7.78059V18.1167H23.05V7.78059H22.1184ZM22.1184 18.1167C22.1184 19.7222 21.6683 20.9038 20.8239 21.7288L21.475 22.3952C22.5437 21.3509 23.05 19.9022 23.05 18.1167H22.1184ZM20.8239 21.7288C19.9999 22.5338 18.8157 22.9656 17.2042 22.9656V23.8972C18.9838 23.8972 20.4296 23.4163 21.475 22.3952L20.8239 21.7288ZM17.2042 22.9656H9.15053V23.8972H17.2042V22.9656ZM9.15053 22.9656C9.07383 22.9656 9.02569 22.9559 8.99826 22.9467C8.97308 22.9383 8.96635 22.9309 8.96635 22.9309C8.96635 22.9309 8.95889 22.9242 8.95049 22.8989C8.94134 22.8715 8.9316 22.8234 8.9316 22.7467H8C8 23.0468 8.07533 23.3574 8.30761 23.5896C8.5399 23.8219 8.85049 23.8972 9.15053 23.8972V22.9656Z" fill="#0F2440"/>
<path d="M21.415 25.2946H8.9316C8.41709 25.2946 8 25.7117 8 26.2262V28.2757C8 28.7902 8.41709 29.2073 8.9316 29.2073H21.415C21.9296 29.2073 22.3466 28.7902 22.3466 28.2757V26.2262C22.3466 25.7117 21.9296 25.2946 21.415 25.2946Z" fill="#00897B"/>
</svg>
