<svg width="32" height="32" viewBox="0 0 32 32" fill="none" xmlns="http://www.w3.org/2000/svg">
<path d="M22.4998 9V7.5H11.1248L17.1748 15.0625C17.3878 15.3285 17.5039 15.6592 17.5039 16C17.5039 16.3408 17.3878 16.6715 17.1748 16.9375L11.1248 24.5H22.4998V23C22.4998 22.6022 22.6579 22.2206 22.9392 21.9393C23.2205 21.658 23.602 21.5 23.9998 21.5C24.3976 21.5 24.7792 21.658 25.0605 21.9393C25.3418 22.2206 25.4998 22.6022 25.4998 23V26C25.4998 26.3978 25.3418 26.7794 25.0605 27.0607C24.7792 27.342 24.3976 27.5 23.9998 27.5H7.99983C7.7172 27.5001 7.44031 27.4203 7.20105 27.2698C6.96179 27.1194 6.76991 26.9044 6.6475 26.6497C6.52509 26.3949 6.47714 26.1108 6.50918 25.83C6.54122 25.5492 6.65193 25.2831 6.82858 25.0625L14.0786 16L6.82858 6.9375C6.65193 6.71688 6.54122 6.45083 6.50918 6.17003C6.47714 5.88923 6.52509 5.60508 6.6475 5.35034C6.76991 5.0956 6.96179 4.88062 7.20105 4.73017C7.44031 4.57973 7.7172 4.49994 7.99983 4.5H23.9998C24.3976 4.5 24.7792 4.65804 25.0605 4.93934C25.3418 5.22064 25.4998 5.60218 25.4998 6V9C25.4998 9.39782 25.3418 9.77936 25.0605 10.0607C24.7792 10.342 24.3976 10.5 23.9998 10.5C23.602 10.5 23.2205 10.342 22.9392 10.0607C22.6579 9.77936 22.4998 9.39782 22.4998 9Z" fill="#728090"/>
</svg>
