<svg width="32" height="32" viewBox="0 0 32 32" fill="none" xmlns="http://www.w3.org/2000/svg">
<mask id="mask0_6265_12848" style="mask-type:alpha" maskUnits="userSpaceOnUse" x="0" y="0" width="32" height="32">
<rect width="32" height="32" fill="#728090"/>
</mask>
<g mask="url(#mask0_6265_12848)">
<path d="M10.5832 21.0792V23.0609C10.5832 23.304 10.6627 23.5051 10.8218 23.6641C10.9806 23.8232 11.1814 23.9027 11.4242 23.9027C11.6673 23.9027 11.8685 23.8232 12.0278 23.6641C12.1871 23.5051 12.2667 23.304 12.2667 23.0609V21.0792H14.2485C14.4915 21.0792 14.6926 20.9996 14.8517 20.8406C15.0107 20.6818 15.0902 20.4809 15.0902 20.2381C15.0902 19.9951 15.0107 19.7939 14.8517 19.6346C14.6926 19.4753 14.4915 19.3956 14.2485 19.3956H12.2667V17.4139C12.2667 17.1708 12.1872 16.9698 12.0281 16.8107C11.8693 16.6516 11.6685 16.5721 11.4257 16.5721C11.1826 16.5721 10.9814 16.6516 10.8221 16.8107C10.6628 16.9698 10.5832 17.1708 10.5832 17.4139V19.3956H8.60142C8.35836 19.3956 8.1573 19.4752 7.99824 19.6342C7.83918 19.7931 7.75965 19.9939 7.75965 20.2367C7.75965 20.4798 7.83918 20.6809 7.99824 20.8402C8.1573 20.9995 8.35836 21.0792 8.60142 21.0792H10.5832ZM18.4838 22.8439H23.4249C23.668 22.8439 23.8691 22.7643 24.0281 22.6053C24.1872 22.4465 24.2667 22.2456 24.2667 22.0028C24.2667 21.7598 24.1872 21.5586 24.0281 21.3993C23.8691 21.24 23.668 21.1603 23.4249 21.1603H18.4838C18.2407 21.1603 18.0397 21.2399 17.8806 21.3989C17.7215 21.5578 17.642 21.7586 17.642 22.0014C17.642 22.2445 17.7215 22.4456 17.8806 22.6049C18.0397 22.7642 18.2407 22.8439 18.4838 22.8439ZM18.4838 19.3145H23.4249C23.668 19.3145 23.8691 19.2349 24.0281 19.0759C24.1872 18.9171 24.2667 18.7162 24.2667 18.4734C24.2667 18.2303 24.1872 18.0292 24.0281 17.8699C23.8691 17.7106 23.668 17.6309 23.4249 17.6309H18.4838C18.2407 17.6309 18.0397 17.7105 17.8806 17.8695C17.7215 18.0283 17.642 18.2292 17.642 18.472C17.642 18.7151 17.7215 18.9162 17.8806 19.0755C18.0397 19.2348 18.2407 19.3145 18.4838 19.3145ZM20.9544 11.8646L22.3389 13.2492C22.5055 13.4158 22.7006 13.5013 22.9241 13.5058C23.1477 13.5102 23.3485 13.4234 23.5266 13.2453C23.6849 13.0867 23.7678 12.8943 23.7751 12.6682C23.7824 12.4419 23.7054 12.2409 23.5442 12.0654L22.1381 10.6374L23.5227 9.25282C23.6893 9.08623 23.7748 8.89117 23.7793 8.66764C23.7838 8.44411 23.6982 8.24458 23.5227 8.06905C23.3472 7.89352 23.1499 7.80576 22.9308 7.80576C22.7118 7.80576 22.5145 7.89352 22.3389 8.06905L20.9544 9.45364L19.5698 8.06905C19.4032 7.90246 19.2081 7.81694 18.9846 7.81247C18.7611 7.80799 18.5615 7.89352 18.386 8.06905C18.2105 8.24458 18.1227 8.44188 18.1227 8.66093C18.1227 8.87999 18.2105 9.07729 18.386 9.25282L19.7706 10.6374L18.3645 12.0654C18.2122 12.232 18.1339 12.4271 18.1294 12.6506C18.1249 12.8741 18.2105 13.0736 18.386 13.2492C18.5615 13.4247 18.7588 13.5125 18.9779 13.5125C19.1969 13.5125 19.3942 13.4247 19.5698 13.2492L20.9544 11.8646ZM8.95436 11.4792H13.8955C14.1386 11.4792 14.3397 11.3996 14.4987 11.2406C14.6578 11.0818 14.7373 10.8809 14.7373 10.6381C14.7373 10.3951 14.6578 10.1939 14.4987 10.0346C14.3397 9.87529 14.1386 9.79564 13.8955 9.79564H8.95436C8.7113 9.79564 8.51024 9.87517 8.35118 10.0342C8.19212 10.1931 8.1126 10.3939 8.1126 10.6367C8.1126 10.8798 8.19212 11.0809 8.35118 11.2402C8.51024 11.3995 8.7113 11.4792 8.95436 11.4792ZM6.5653 27.6492C5.85212 27.6492 5.24848 27.4021 4.75436 26.908C4.26024 26.4139 4.01318 25.8102 4.01318 25.0971V6.20129C4.01318 5.48811 4.26024 4.88446 4.75436 4.39035C5.24848 3.89623 5.85212 3.64917 6.5653 3.64917H25.4611C26.1742 3.64917 26.7779 3.89623 27.272 4.39035C27.7661 4.88446 28.0132 5.48811 28.0132 6.20129V25.0971C28.0132 25.8102 27.7661 26.4139 27.272 26.908C26.7779 27.4021 26.1742 27.6492 25.4611 27.6492H6.5653Z" fill="#728090"/>
</g>
</svg>
