<svg width="32" height="32" viewBox="0 0 32 32" fill="none" xmlns="http://www.w3.org/2000/svg">
<rect x="4" y="4" width="24" height="24" rx="3" fill="#728090"/>
<path d="M7.638 10.303L13.061 8.301V9.907L9.552 11.15L13.061 12.393V13.999L7.638 11.997V10.303Z" fill="white"/>
<path d="M18.638 19.907V18.301L24.061 20.303V21.997L18.638 23.999V22.393L22.147 21.15L18.638 19.907Z" fill="white"/>
<path d="M13.061 20.556H7.638V18.961H13.061V20.556ZM13.061 23.339H7.638V21.744H13.061V23.339Z" fill="white"/>
<path d="M17.55 9.363V7.658C17.55 7.504 17.627 7.427 17.781 7.427H18.826C18.98 7.427 19.057 7.504 19.057 7.658V9.363C19.057 9.65633 19.0387 9.98633 19.002 10.353C18.9727 10.7123 18.9507 10.98 18.936 11.156C18.9213 11.332 18.9067 11.475 18.892 11.585C18.8773 11.695 18.87 11.7537 18.87 11.761C18.8407 11.915 18.7563 11.992 18.617 11.992H17.99C17.8507 11.992 17.7663 11.915 17.737 11.761C17.737 11.7537 17.7297 11.695 17.715 11.585C17.7003 11.475 17.682 11.332 17.66 11.156C17.6453 10.98 17.6307 10.7893 17.616 10.584C17.572 9.98267 17.55 9.57567 17.55 9.363ZM19.024 12.916V14.269C19.024 14.423 18.9507 14.5 18.804 14.5H17.836C17.6893 14.5 17.616 14.4193 17.616 14.258V12.927C17.616 12.7803 17.6893 12.707 17.836 12.707H18.804C18.9507 12.707 19.024 12.7767 19.024 12.916ZM19.9951 9.319H24.1641C24.2594 9.319 24.3254 9.341 24.3621 9.385C24.3988 9.42167 24.4171 9.48767 24.4171 9.583V10.177C24.4171 10.2723 24.3988 10.342 24.3621 10.386C24.3254 10.4227 24.2594 10.441 24.1641 10.441H19.9951C19.8998 10.441 19.8338 10.4227 19.7971 10.386C19.7604 10.342 19.7421 10.2723 19.7421 10.177V9.583C19.7421 9.48767 19.7604 9.42167 19.7971 9.385C19.8338 9.341 19.8998 9.319 19.9951 9.319ZM19.9951 11.486H24.1641C24.2594 11.486 24.3254 11.508 24.3621 11.552C24.3988 11.5887 24.4171 11.6547 24.4171 11.75V12.344C24.4171 12.4393 24.3988 12.509 24.3621 12.553C24.3254 12.5897 24.2594 12.608 24.1641 12.608H19.9951C19.8998 12.608 19.8338 12.5897 19.7971 12.553C19.7604 12.509 19.7421 12.4393 19.7421 12.344V11.75C19.7421 11.6547 19.7604 11.5887 19.7971 11.552C19.8338 11.508 19.8998 11.486 19.9951 11.486Z" fill="white"/>
</svg>
