<svg width="32" height="32" viewBox="0 0 32 32" fill="none" xmlns="http://www.w3.org/2000/svg">
<g clip-path="url(#clip0_6191_14034)">
<path d="M25 4.75H7C5.75736 4.75 4.75 5.75736 4.75 7V25C4.75 26.2426 5.75736 27.25 7 27.25H25C26.2426 27.25 27.25 26.2426 27.25 25V7C27.25 5.75736 26.2426 4.75 25 4.75Z" fill="#728090" stroke="#728090" stroke-width="1.125"/>
<path d="M8.34 13H8.1C7.57333 13 7.16667 12.86 6.88 12.58C6.59333 12.3 6.45 11.8967 6.45 11.37V9.53C6.45 9.00333 6.59333 8.6 6.88 8.32C7.16667 8.04 7.57333 7.9 8.1 7.9H10.41C10.5567 7.9 10.63 7.97 10.63 8.11V12.79C10.63 12.93 10.5567 13 10.41 13H9.57C9.43 13 9.36 12.93 9.36 12.79V12.46H9.32C9.24667 12.64 9.11667 12.7767 8.93 12.87C8.74333 12.9567 8.54667 13 8.34 13ZM9.36 11.14V9.11C9.36 9.03667 9.32 9 9.24 9H8.3C8.08667 9 7.93667 9.04667 7.85 9.14C7.76333 9.22667 7.72 9.37667 7.72 9.59V11.31C7.72 11.5233 7.76333 11.6767 7.85 11.77C7.93667 11.8567 8.08667 11.9 8.3 11.9H8.67C9.13 11.9 9.36 11.6467 9.36 11.14ZM12.9058 11.9H13.9258C14.1391 11.9 14.2891 11.8567 14.3758 11.77C14.4691 11.6767 14.5158 11.5233 14.5158 11.31V9.57C14.5158 9.35667 14.4691 9.20667 14.3758 9.12C14.2891 9.02667 14.1391 8.98 13.9258 8.98H13.4858C13.0258 8.98 12.7958 9.23333 12.7958 9.74V11.79C12.7958 11.8633 12.8324 11.9 12.9058 11.9ZM11.5258 12.79V6.18C11.5258 6.04 11.5958 5.97 11.7358 5.97H12.5858C12.7258 5.97 12.7958 6.04 12.7958 6.18V8.43H12.8358C12.9091 8.25 13.0391 8.11333 13.2258 8.02C13.4124 7.92667 13.6091 7.88 13.8158 7.88H14.1358C14.6624 7.88 15.0691 8.02 15.3558 8.3C15.6424 8.58 15.7858 8.98333 15.7858 9.51V11.37C15.7858 11.8967 15.6424 12.3 15.3558 12.58C15.0691 12.86 14.6624 13 14.1358 13H11.7358C11.5958 13 11.5258 12.93 11.5258 12.79ZM19.8395 12.11V12.8C19.8395 12.8733 19.8228 12.9267 19.7895 12.96C19.7628 12.9867 19.7095 13 19.6295 13H18.1395C17.6128 13 17.2061 12.86 16.9195 12.58C16.6328 12.3 16.4895 11.8967 16.4895 11.37V9.53C16.4895 9.00333 16.6328 8.6 16.9195 8.32C17.2061 8.04 17.6128 7.9 18.1395 7.9H19.6295C19.7695 7.9 19.8395 7.97 19.8395 8.11V8.8C19.8395 8.87333 19.8228 8.92667 19.7895 8.96C19.7628 8.98667 19.7095 9 19.6295 9H18.3395C18.1328 9 17.9828 9.04667 17.8895 9.14C17.8028 9.22667 17.7595 9.37667 17.7595 9.59V11.31C17.7595 11.5233 17.8028 11.6767 17.8895 11.77C17.9828 11.8567 18.1328 11.9 18.3395 11.9H19.6295C19.7695 11.9 19.8395 11.97 19.8395 12.11ZM23.608 11.56V12.34C23.608 12.52 23.5314 12.7267 23.378 12.96L22.688 13.97C22.6414 14.0367 22.578 14.07 22.498 14.07C22.3847 14.07 22.328 14.0033 22.328 13.87V11.57C22.328 11.4367 22.3947 11.37 22.528 11.37H23.418C23.5447 11.37 23.608 11.4333 23.608 11.56ZM23.608 8.09V9.32C23.608 9.46 23.5447 9.53 23.418 9.53H22.528C22.3947 9.53 22.328 9.45333 22.328 9.3V8.1C22.328 7.96667 22.3947 7.9 22.528 7.9H23.418C23.5447 7.9 23.608 7.96333 23.608 8.09ZM6.23 18.36V17.54C6.23 17.4267 6.28 17.34 6.38 17.28L7.29 16.71C7.44333 16.6167 7.57333 16.57 7.68 16.57H8.48C8.62 16.57 8.69 16.64 8.69 16.78V22.79C8.69 22.87 8.67333 22.9267 8.64 22.96C8.61333 22.9867 8.56333 23 8.49 23H7.63C7.49 23 7.42 22.93 7.42 22.79V17.92L6.44 18.48C6.3 18.54 6.23 18.5 6.23 18.36ZM9.60984 22.79V21.84C9.60984 21.46 9.77318 21.1367 10.0998 20.87L11.9398 19.31C12.2398 19.0633 12.3898 18.7967 12.3898 18.51V18.21C12.3898 18.0033 12.3398 17.8567 12.2398 17.77C12.1465 17.6767 11.9898 17.63 11.7698 17.63H11.4198C11.2065 17.63 11.0565 17.6767 10.9698 17.77C10.8832 17.8567 10.8398 18.0033 10.8398 18.21V18.53C10.8398 18.6767 10.7698 18.75 10.6298 18.75H9.77984C9.63984 18.75 9.56984 18.6767 9.56984 18.53V18.19C9.56984 17.67 9.71318 17.27 9.99984 16.99C10.2865 16.71 10.6932 16.57 11.2198 16.57H11.9798C12.5065 16.57 12.9132 16.71 13.1998 16.99C13.4865 17.27 13.6298 17.67 13.6298 18.19V18.59C13.6298 19.11 13.4298 19.54 13.0298 19.88L11.1498 21.48C11.0698 21.5533 11.0298 21.6333 11.0298 21.72V21.88H13.4198C13.5598 21.88 13.6298 21.95 13.6298 22.09V22.79C13.6298 22.93 13.5598 23 13.4198 23H9.81984C9.67984 23 9.60984 22.93 9.60984 22.79ZM16.0615 19.26H16.5715C16.7915 19.26 16.9482 19.2167 17.0415 19.13C17.1415 19.0367 17.1915 18.8867 17.1915 18.68V18.21C17.1915 18.0033 17.1415 17.8567 17.0415 17.77C16.9482 17.6767 16.7915 17.63 16.5715 17.63H16.0915C15.8782 17.63 15.7282 17.6767 15.6415 17.77C15.5548 17.8567 15.5115 18.0033 15.5115 18.21V18.46C15.5115 18.6 15.4415 18.67 15.3015 18.67H14.4515C14.3115 18.67 14.2415 18.6 14.2415 18.46V18.19C14.2415 17.67 14.3848 17.27 14.6715 16.99C14.9582 16.71 15.3648 16.57 15.8915 16.57H16.7815C17.3082 16.57 17.7148 16.71 18.0015 16.99C18.2882 17.27 18.4315 17.67 18.4315 18.19V18.69C18.4315 19.25 18.1682 19.6133 17.6415 19.78C18.1682 19.8933 18.4315 20.2567 18.4315 20.87V21.38C18.4315 21.9 18.2882 22.3 18.0015 22.58C17.7148 22.86 17.3082 23 16.7815 23H15.8915C15.3648 23 14.9582 22.86 14.6715 22.58C14.3848 22.3 14.2415 21.9 14.2415 21.38V21.1C14.2415 20.9533 14.3115 20.88 14.4515 20.88H15.3015C15.4415 20.88 15.5115 20.9533 15.5115 21.1V21.36C15.5115 21.5733 15.5548 21.7233 15.6415 21.81C15.7282 21.8967 15.8782 21.94 16.0915 21.94H16.5715C16.7915 21.94 16.9482 21.8967 17.0415 21.81C17.1415 21.7167 17.1915 21.5667 17.1915 21.36V20.87C17.1915 20.6633 17.1415 20.5167 17.0415 20.43C16.9482 20.3367 16.7915 20.29 16.5715 20.29H16.0615C15.9215 20.29 15.8515 20.22 15.8515 20.08V19.48C15.8515 19.3333 15.9215 19.26 16.0615 19.26Z" fill="white"/>
<circle cx="25" cy="24" r="6" fill="white"/>
<path d="M26 23.5V25L29 22.5L26 20V21.5H22V23.5H26Z" fill="#728090"/>
<path d="M28 25.5H24V24L21 26.5L24 29V27.5H28V25.5Z" fill="#728090"/>
</g>
<defs>
<clipPath id="clip0_6191_14034">
<rect width="25" height="25" fill="white" transform="translate(4 4)"/>
</clipPath>
</defs>
</svg>
