<svg width="32" height="32" viewBox="0 0 32 32" fill="none" xmlns="http://www.w3.org/2000/svg">
<path d="M15.0688 15.8875L10.3531 12.1562C10.2594 12.0813 10.125 12.15 10.125 12.2688V14.9375H5.75V5.75H12.125V9.75C12.125 9.81875 12.1812 9.875 12.25 9.875H14.125C14.1938 9.875 14.25 9.81875 14.25 9.75V4.5C14.25 4.01562 13.8594 3.625 13.375 3.625H4.5C4.01562 3.625 3.625 4.01562 3.625 4.5V27.5C3.625 27.9844 4.01562 28.375 4.5 28.375H13.375C13.8594 28.375 14.25 27.9844 14.25 27.5V22.25C14.25 22.1812 14.1938 22.125 14.125 22.125H12.25C12.1812 22.125 12.125 22.1812 12.125 22.25V26.25H5.75V17.0625H10.125V19.7313C10.125 19.85 10.2625 19.9188 10.3531 19.8438L15.0688 16.1125C15.1438 16.0562 15.1438 15.9437 15.0688 15.8875ZM27.5 3.625H18.625C18.1406 3.625 17.75 4.01562 17.75 4.5V9.75C17.75 9.81875 17.8062 9.875 17.875 9.875H19.75C19.8188 9.875 19.875 9.81875 19.875 9.75V5.75H26.25V14.9375H21.875V12.2688C21.875 12.15 21.7406 12.0813 21.6469 12.1562L16.9281 15.8875C16.8563 15.9437 16.8563 16.0531 16.9281 16.1094L21.6469 19.8438C21.7375 19.9156 21.875 19.85 21.875 19.7313V17.0625H26.25V26.25H19.875V22.25C19.875 22.1812 19.8188 22.125 19.75 22.125H17.875C17.8062 22.125 17.75 22.1812 17.75 22.25V27.5C17.75 27.9844 18.1406 28.375 18.625 28.375H27.5C27.9844 28.375 28.375 27.9844 28.375 27.5C28.375 27.5 28.375 4.98438 28.375 4.5C28.375 4.01562 27.9844 3.625 27.5 3.625Z" fill="#728090"/>
</svg>
