<svg width="32" height="32" viewBox="0 0 32 32" fill="none" xmlns="http://www.w3.org/2000/svg">
<path d="M15.9998 2.66669C8.63984 2.66669 2.6665 8.64002 2.6665 16C2.6665 23.36 8.63984 29.3334 15.9998 29.3334C23.3598 29.3334 29.3332 23.36 29.3332 16C29.3332 8.64002 23.3598 2.66669 15.9998 2.66669ZM15.9998 26.6667C10.1198 26.6667 5.33317 21.88 5.33317 16C5.33317 10.12 10.1198 5.33335 15.9998 5.33335C21.8798 5.33335 26.6665 10.12 26.6665 16C26.6665 21.88 21.8798 26.6667 15.9998 26.6667ZM15.9998 8.00002C11.5998 8.00002 7.99984 11.6 7.99984 16C7.99984 20.4 11.5998 24 15.9998 24C20.3998 24 23.9998 20.4 23.9998 16C23.9998 11.6 20.5332 8.00002 15.9998 8.00002ZM18.6665 17.3334H13.3332C12.5998 17.3334 11.9998 16.7334 11.9998 16C11.9998 15.2667 12.5998 14.6667 13.3332 14.6667H18.6665C19.3998 14.6667 19.9998 15.2667 19.9998 16C19.9998 16.7334 19.3998 17.3334 18.6665 17.3334Z" fill="#728090"/>
</svg>
