<svg width="32" height="32" viewBox="0 0 32 32" fill="none" xmlns="http://www.w3.org/2000/svg">
<mask id="mask0_4710_22220" style="mask-type:alpha" maskUnits="userSpaceOnUse" x="0" y="0" width="32" height="32">
<rect width="32" height="32" fill="#00897B"/>
</mask>
<g mask="url(#mask0_4710_22220)">
<path d="M14.6664 26.6693C14.2887 26.6693 13.972 26.5415 13.7164 26.2859C13.4609 26.0304 13.3331 25.7137 13.3331 25.3359V17.3359L5.59978 7.46927C5.26645 7.02483 5.21645 6.55816 5.44978 6.06927C5.68312 5.58038 6.08867 5.33594 6.66645 5.33594H25.3331C25.9109 5.33594 26.3165 5.58038 26.5498 6.06927C26.7831 6.55816 26.7331 7.02483 26.3998 7.46927L18.6664 17.3359V25.3359C18.6664 25.7137 18.5387 26.0304 18.2831 26.2859C18.0276 26.5415 17.7109 26.6693 17.3331 26.6693H14.6664Z" fill="#728090"/>
</g>
</svg>
