<svg width="32" height="32" viewBox="0 0 32 32" fill="none" xmlns="http://www.w3.org/2000/svg">
<path d="M9.496 4H9.688C10.0507 4 10.232 4.18134 10.232 4.544V5.728C10.232 6.09066 10.0507 6.272 9.688 6.272H9.592C8.888 6.272 8.38666 6.464 8.088 6.848C7.81066 7.21066 7.672 7.808 7.672 8.64V12.8C7.672 14.4854 7.04266 15.5306 5.784 15.936C7.04266 16.2986 7.672 17.3334 7.672 19.04V23.2C7.672 24.032 7.81066 24.6294 8.088 24.992C8.38666 25.376 8.888 25.568 9.592 25.568H9.688C10.0507 25.568 10.232 25.7494 10.232 26.112V27.296C10.232 27.6586 10.0507 27.84 9.688 27.84H9.496C6.59466 27.84 5.144 26.1866 5.144 22.88V19.264C5.144 17.9626 4.62134 17.312 3.576 17.312C3.192 17.312 3 17.12 3 16.736V15.104C3 14.7414 3.192 14.56 3.576 14.56C4.62134 14.56 5.144 13.8986 5.144 12.576V8.96C5.144 5.65334 6.59466 4 9.496 4Z" fill="#728090"/>
<path d="M27.37 8.96V12.576C27.37 13.8986 27.8926 14.56 28.938 14.56C29.3006 14.56 29.482 14.7414 29.482 15.104V16.736C29.482 17.12 29.258 17.312 28.81 17.312C27.85 17.312 27.37 17.9626 27.37 19.264V22.88C27.37 26.1866 25.9194 27.84 23.018 27.84H22.826C22.442 27.84 22.25 27.6586 22.25 27.296V26.112C22.25 25.7494 22.442 25.568 22.826 25.568H22.922C23.626 25.568 24.1166 25.376 24.394 24.992C24.6714 24.6294 24.81 24.032 24.81 23.2V19.04C24.81 17.3334 25.4394 16.2986 26.698 15.936C25.4394 15.5094 24.81 14.464 24.81 12.8V8.64C24.81 7.808 24.6714 7.21066 24.394 6.848C24.1166 6.464 23.626 6.272 22.922 6.272H22.826C22.442 6.272 22.25 6.09066 22.25 5.728V4.544C22.25 4.18134 22.442 4 22.826 4H23.018C25.9194 4 27.37 5.65334 27.37 8.96Z" fill="#728090"/>
<path d="M16.25 13.5C17.2165 13.5 18 12.7165 18 11.75C18 10.7835 17.2165 10 16.25 10C15.2835 10 14.5 10.7835 14.5 11.75C14.5 12.7165 15.2835 13.5 16.25 13.5Z" fill="#728090"/>
<rect x="14.5" y="18" width="3.5" height="7" rx="1.75" fill="#728090"/>
</svg>
