<svg width="32" height="32" viewBox="0 0 32 32" fill="none" xmlns="http://www.w3.org/2000/svg">
<rect x="4" y="4" width="24" height="24" rx="3" fill="#728090"/>
<path d="M7.6125 17.95V17.7C7.6125 17.525 7.7 17.4375 7.875 17.4375H8.9375C9.1125 17.4375 9.2 17.525 9.2 17.7V17.8C9.2 18.1167 9.2625 18.3333 9.3875 18.45C9.5125 18.5667 9.74167 18.625 10.075 18.625H10.6625C10.9875 18.625 11.2125 18.5625 11.3375 18.4375C11.4708 18.3125 11.5375 18.0792 11.5375 17.7375V17.5875C11.5375 17.3458 11.4375 17.1625 11.2375 17.0375C11.0458 16.9042 10.8042 16.825 10.5125 16.8C10.2208 16.775 9.90417 16.7292 9.5625 16.6625C9.22917 16.5875 8.91667 16.4958 8.625 16.3875C8.33333 16.2708 8.0875 16.05 7.8875 15.725C7.69583 15.3917 7.6 14.9667 7.6 14.45V14.0125C7.6 13.3625 7.78333 12.8583 8.15 12.5C8.51667 12.1417 9.025 11.9625 9.675 11.9625H10.925C11.5833 11.9625 12.0958 12.1417 12.4625 12.5C12.8292 12.8583 13.0125 13.3625 13.0125 14.0125V14.25C13.0125 14.425 12.925 14.5125 12.75 14.5125H11.6875C11.5125 14.5125 11.425 14.425 11.425 14.25V14.175C11.425 13.85 11.3625 13.6292 11.2375 13.5125C11.1125 13.3958 10.8833 13.3375 10.55 13.3375H10.0625C9.72083 13.3375 9.4875 13.4042 9.3625 13.5375C9.24583 13.6625 9.1875 13.9125 9.1875 14.2875V14.525C9.1875 14.9167 9.52917 15.1417 10.2125 15.2C10.9208 15.2583 11.55 15.4 12.1 15.625C12.3917 15.75 12.6333 15.975 12.825 16.3C13.025 16.6167 13.125 17.025 13.125 17.525V17.95C13.125 18.6 12.9417 19.1042 12.575 19.4625C12.2083 19.8208 11.7 20 11.05 20H9.6875C9.0375 20 8.52917 19.8208 8.1625 19.4625C7.79583 19.1042 7.6125 18.6 7.6125 17.95ZM16.3508 18.625H17.2383C17.5049 18.625 17.6924 18.5708 17.8008 18.4625C17.9174 18.3458 17.9758 18.1542 17.9758 17.8875V14.075C17.9758 13.8083 17.9174 13.6208 17.8008 13.5125C17.6924 13.3958 17.5049 13.3375 17.2383 13.3375H16.3508C16.0841 13.3375 15.8966 13.3958 15.7883 13.5125C15.6799 13.6208 15.6258 13.8083 15.6258 14.075V17.8875C15.6258 18.1542 15.6799 18.3458 15.7883 18.4625C15.8966 18.5708 16.0841 18.625 16.3508 18.625ZM18.6383 21.6625H17.7258C17.5008 21.6625 17.3383 21.575 17.2383 21.4L16.4258 20H16.0883C15.4299 20 14.9216 19.825 14.5633 19.475C14.2049 19.125 14.0258 18.6208 14.0258 17.9625V14C14.0258 13.3417 14.2049 12.8375 14.5633 12.4875C14.9216 12.1375 15.4299 11.9625 16.0883 11.9625H17.4883C18.1466 11.9625 18.6549 12.1375 19.0133 12.4875C19.3716 12.8375 19.5508 13.3417 19.5508 14V17.9625C19.5508 18.5125 19.4174 18.9583 19.1508 19.3C18.8924 19.6417 18.5216 19.8583 18.0383 19.95L18.8383 21.3375C18.8799 21.4375 18.8799 21.5167 18.8383 21.575C18.7966 21.6333 18.7299 21.6625 18.6383 21.6625ZM25.0425 20H20.93C20.755 20 20.6675 19.9125 20.6675 19.7375V12.225C20.6675 12.05 20.755 11.9625 20.93 11.9625H21.9925C22.1675 11.9625 22.255 12.05 22.255 12.225V18.475C22.255 18.5667 22.305 18.6125 22.405 18.6125H25.0425C25.2091 18.6125 25.2925 18.7042 25.2925 18.8875V19.7375C25.2925 19.9125 25.2091 20 25.0425 20Z" fill="white"/>
</svg>
