<svg width="32" height="32" viewBox="0 0 32 32" fill="none" xmlns="http://www.w3.org/2000/svg">
<mask id="mask0_4710_22225" style="mask-type:alpha" maskUnits="userSpaceOnUse" x="0" y="0" width="32" height="32">
<rect width="32" height="32" fill="#00897B"/>
</mask>
<g mask="url(#mask0_4710_22225)">
<path d="M8.00033 28C6.53366 28 5.2781 27.4778 4.23366 26.4333C3.18921 25.3889 2.66699 24.1333 2.66699 22.6667C2.66699 21.2 3.18921 19.9444 4.23366 18.9C5.2781 17.8556 6.53366 17.3333 8.00033 17.3333C9.46699 17.3333 10.7225 17.8556 11.767 18.9C12.8114 19.9444 13.3337 21.2 13.3337 22.6667C13.3337 24.1333 12.8114 25.3889 11.767 26.4333C10.7225 27.4778 9.46699 28 8.00033 28ZM24.0003 28C22.5337 28 21.2781 27.4778 20.2337 26.4333C19.1892 25.3889 18.667 24.1333 18.667 22.6667C18.667 21.2 19.1892 19.9444 20.2337 18.9C21.2781 17.8556 22.5337 17.3333 24.0003 17.3333C25.467 17.3333 26.7225 17.8556 27.767 18.9C28.8114 19.9444 29.3337 21.2 29.3337 22.6667C29.3337 24.1333 28.8114 25.3889 27.767 26.4333C26.7225 27.4778 25.467 28 24.0003 28ZM16.0003 14.6667C14.5337 14.6667 13.2781 14.1444 12.2337 13.1C11.1892 12.0556 10.667 10.8 10.667 9.33333C10.667 7.86667 11.1892 6.61111 12.2337 5.56667C13.2781 4.52222 14.5337 4 16.0003 4C17.467 4 18.7225 4.52222 19.767 5.56667C20.8114 6.61111 21.3337 7.86667 21.3337 9.33333C21.3337 10.8 20.8114 12.0556 19.767 13.1C18.7225 14.1444 17.467 14.6667 16.0003 14.6667Z" fill="#728090"/>
</g>
</svg>
