<svg width="32" height="32" viewBox="0 0 32 32" fill="none" xmlns="http://www.w3.org/2000/svg">
<mask id="mask0_5874_12663" style="mask-type:alpha" maskUnits="userSpaceOnUse" x="0" y="0" width="32" height="32">
<rect width="32" height="32" fill="#D9D9D9"/>
</mask>
<g mask="url(#mask0_5874_12663)">
<path d="M21.333 25.3307C20.7108 25.3307 20.1052 25.2696 19.5163 25.1474C18.9275 25.0252 18.3552 24.853 17.7997 24.6307C19.1108 23.4307 20.1386 22.0918 20.883 20.6141C21.6275 19.1363 21.9997 17.5974 21.9997 15.9974C21.9997 14.3974 21.6275 12.8585 20.883 11.3807C20.1386 9.90295 19.1108 8.56406 17.7997 7.36406C18.3552 7.14184 18.9275 6.96962 19.5163 6.8474C20.1052 6.72517 20.7108 6.66406 21.333 6.66406C23.933 6.66406 26.1386 7.56962 27.9497 9.38073C29.7608 11.1918 30.6663 13.3974 30.6663 15.9974C30.6663 18.5974 29.7608 20.803 27.9497 22.6141C26.1386 24.4252 23.933 25.3307 21.333 25.3307ZM15.9997 23.6641C14.7775 22.8196 13.8052 21.7307 13.083 20.3974C12.3608 19.0641 11.9997 17.5974 11.9997 15.9974C11.9997 14.3974 12.3608 12.9307 13.083 11.5974C13.8052 10.2641 14.7775 9.17517 15.9997 8.33073C17.2219 9.17517 18.1941 10.2641 18.9163 11.5974C19.6386 12.9307 19.9997 14.3974 19.9997 15.9974C19.9997 17.5974 19.6386 19.0641 18.9163 20.3974C18.1941 21.7307 17.2219 22.8196 15.9997 23.6641ZM10.6663 25.3307C8.06634 25.3307 5.86079 24.4252 4.04967 22.6141C2.23856 20.803 1.33301 18.5974 1.33301 15.9974C1.33301 13.3974 2.23856 11.1918 4.04967 9.38073C5.86079 7.56962 8.06634 6.66406 10.6663 6.66406C11.2886 6.66406 11.8941 6.72517 12.483 6.8474C13.0719 6.96962 13.6441 7.14184 14.1997 7.36406C12.8886 8.56406 11.8608 9.90295 11.1163 11.3807C10.3719 12.8585 9.99967 14.3974 9.99967 15.9974C9.99967 17.753 10.3608 19.3807 11.083 20.8807C11.8052 22.3807 12.7997 23.653 14.0663 24.6974C13.533 24.8974 12.983 25.0529 12.4163 25.1641C11.8497 25.2752 11.2663 25.3307 10.6663 25.3307Z" fill="#728090"/>
</g>
</svg>
