<svg width="32" height="32" viewBox="0 0 32 32" fill="none" xmlns="http://www.w3.org/2000/svg">
<path d="M11 11V4.75H24.75C25.4375 4.75 26.0262 4.995 26.5162 5.485C27.0062 5.975 27.2508 6.56333 27.25 7.25V11H11ZM7.25 27.25C6.5625 27.25 5.97417 27.0054 5.485 26.5162C4.99583 26.0271 4.75083 25.4383 4.75 24.75V13.5H11V27.25H7.25ZM4.75 11V7.25C4.75 6.5625 4.995 5.97417 5.485 5.485C5.975 4.99583 6.56333 4.75083 7.25 4.75H11V11H4.75ZM12.5 25.75V23.25H18.75C19.4375 23.25 20.0262 23.0054 20.5162 22.5162C21.0062 22.0271 21.2508 21.4383 21.25 20.75V18L19.25 20L17.5 18.25L22.5 13.25L27.5 18.25L25.75 20L23.75 18V20.75C23.75 22.125 23.2604 23.3021 22.2812 24.2812C21.3021 25.2604 20.125 25.75 18.75 25.75H12.5Z" fill="#728090"/>
</svg>
