<svg width="32" height="32" viewBox="0 0 32 32" fill="none" xmlns="http://www.w3.org/2000/svg">
<mask id="mask0_6226_14366" style="mask-type:alpha" maskUnits="userSpaceOnUse" x="0" y="0" width="32" height="32">
<rect width="32" height="32" fill="#D9D9D9"/>
</mask>
<g mask="url(#mask0_6226_14366)">
<path d="M6.63391 10.2377L6.63393 10.2377L6.6352 10.2352C6.88325 9.73911 7.16209 9.27446 7.47162 8.8411C7.78096 8.40803 8.12914 7.99791 8.51629 7.61076C10.5944 5.53266 13.0787 4.4882 15.9771 4.47271C18.8748 4.45721 21.3585 5.48591 23.4362 7.56361L23.6012 7.72861L23.8573 7.98467L23.8573 7.62254V5.92548C23.8573 5.62346 23.9722 5.35418 24.2141 5.11231C24.4559 4.87044 24.7252 4.75555 25.0272 4.75555C25.3293 4.75555 25.5985 4.87044 25.8404 5.11231C26.0823 5.35419 26.1972 5.62346 26.1972 5.92549L26.1972 10.8281C26.1972 11.1681 26.0854 11.4434 25.864 11.6648C25.6425 11.8863 25.3673 11.998 25.0272 11.998L20.1246 11.998C19.8226 11.998 19.5533 11.8831 19.3115 11.6413C19.0696 11.3994 18.9547 11.1301 18.9547 10.8281C18.9547 10.5261 19.0696 10.2568 19.3115 10.0149C19.5533 9.77305 19.8226 9.65816 20.1246 9.65816L21.8217 9.65816L22.1838 9.65816L21.9278 9.40209L21.7628 9.2371C20.1634 7.6377 18.2355 6.83993 15.9875 6.84793C13.7394 6.85593 11.8043 7.6697 10.1898 9.28424C9.93393 9.54009 9.6979 9.8081 9.48175 10.0883C9.26419 10.3703 9.07483 10.6724 8.91369 10.9943C8.73995 11.3118 8.50119 11.5344 8.19639 11.6691C7.89225 11.8034 7.57969 11.8215 7.25182 11.7217C6.93297 11.6246 6.71685 11.4283 6.59273 11.1249C6.46801 10.82 6.48165 10.5284 6.63391 10.2377Z" fill="#728090" stroke="white" stroke-width="0.3"/>
<path d="M4.918 22H3.504C3.26133 22 3.196 21.902 3.308 21.706L5.072 18.36L3.308 15.154C3.21467 14.958 3.27067 14.86 3.476 14.86H4.904C5.128 14.86 5.27267 14.958 5.338 15.154L6.22 17.282H6.276L7.046 15.154C7.11133 14.958 7.256 14.86 7.48 14.86H8.88C9.12267 14.86 9.18333 14.958 9.062 15.154L7.382 18.36L9.188 21.706C9.23467 21.79 9.23933 21.86 9.202 21.916C9.174 21.972 9.11333 22 9.02 22H7.578C7.382 22 7.242 21.902 7.158 21.706L6.276 19.564H6.22L5.338 21.706C5.27267 21.902 5.13267 22 4.918 22Z" fill="#728090"/>
<path d="M24.932 24.366H24.036C23.8493 24.366 23.756 24.2633 23.756 24.058V23.12C23.756 22.9147 23.8493 22.812 24.036 22.812H24.33C24.918 22.812 25.3147 22.728 25.52 22.56C25.7347 22.4013 25.898 22.0887 26.01 21.622H25.268C25.0907 21.622 24.974 21.524 24.918 21.328L23.28 15.154C23.224 14.958 23.294 14.86 23.49 14.86H24.736C24.9227 14.86 25.0393 14.958 25.086 15.154L26.29 20.32H26.346L27.536 15.154C27.5733 14.958 27.69 14.86 27.886 14.86H29.062C29.2953 14.86 29.3887 14.9627 29.342 15.168L27.634 22C27.4287 22.7747 27.1113 23.3627 26.682 23.764C26.2527 24.1653 25.6693 24.366 24.932 24.366Z" fill="#728090"/>
</g>
</svg>
