<svg width="32" height="32" viewBox="0 0 32 32" fill="none" xmlns="http://www.w3.org/2000/svg">
<path d="M19.6154 4.84615V10.3846H25.1538C25.6434 10.3846 26.1131 10.5791 26.4593 10.9253C26.8054 11.2716 27 11.7411 27 12.2308V25.1538C27 25.6434 26.8054 26.1131 26.4593 26.4593C26.1131 26.8054 25.6434 27 25.1538 27H12.2308C11.7411 27 11.2716 26.8054 10.9253 26.4593C10.5791 26.1131 10.3846 25.6434 10.3846 25.1538V19.6154H4.84615C4.35652 19.6154 3.88695 19.4209 3.54073 19.0747C3.19451 18.7284 3 18.2589 3 17.7692V4.84615C3 4.35652 3.19451 3.88695 3.54073 3.54073C3.88695 3.19451 4.35652 3 4.84615 3H17.7692C18.2589 3 18.7284 3.19451 19.0747 3.54073C19.4209 3.88695 19.6154 4.35652 19.6154 4.84615Z" fill="#728090"/>
</svg>
