<svg width="32" height="32" viewBox="0 0 32 32" fill="none" xmlns="http://www.w3.org/2000/svg">
<path d="M13.5 9.75L13.5 3.5L24.75 3.5C25.4375 3.5 26.0262 3.745 26.5162 4.235C27.0062 4.725 27.2508 5.31334 27.25 6L27.25 9.75L13.5 9.75ZM7.25 26C6.5625 26 5.97416 25.7554 5.485 25.2662C4.99583 24.7771 4.75083 24.1883 4.75 23.5L4.75 9.75L11 9.75L11 26L7.25 26ZM4.75 9.75L4.75 6C4.75 5.3125 4.995 4.72417 5.485 4.235C5.975 3.74583 6.56333 3.50083 7.25 3.5L11 3.5L11 9.75L4.75 9.75ZM18.25 26.25L13.25 21.25L18.25 16.25L20 18L18.0625 20L20.75 20C21.4375 20 22.0262 19.7554 22.5162 19.2663C23.0062 18.7771 23.2508 18.1883 23.25 17.5L23.25 11.5L25.75 11.5L25.75 17.5C25.75 18.875 25.2604 20.0521 24.2812 21.0313C23.3021 22.0104 22.125 22.5 20.75 22.5L18.0625 22.5L20 24.5L18.25 26.25Z" fill="#728090"/>
</svg>
